<svg width="27" height="16" viewBox="0 0 27 16" fill="none" xmlns="http://www.w3.org/2000/svg">
<path d="M0.323323 9.31022C0.135694 9.7339 0.0449053 10.1667 0.00858986 10.6509C-0.0277256 11.1199 0.0600367 11.592 0.105431 12.0581C0.156878 12.5605 0.0933258 13.0598 0.172009 13.4804C0.323323 14.2915 0.323323 14.7817 0.498848 15.0269C0.686478 15.2932 1.12226 15.3083 2.04831 15.2569C2.46291 15.2327 2.87448 15.1177 3.29211 15.1146C3.70671 15.1146 4.12434 15.1025 4.54196 15.1116C4.95657 15.1207 5.37117 15.2448 5.78577 15.2538C6.20339 15.2629 6.618 15.2054 7.0326 15.2024C7.45022 15.2024 7.87088 15.2781 8.28245 15.2508C8.64863 15.2266 9.02692 15.1086 9.41428 15.0904C9.79257 15.0723 10.1769 15.0027 10.5522 15.0027C10.9395 15.0027 11.3269 15.1086 11.6931 15.1358C11.7718 14.7212 11.9231 14.3036 11.9745 13.8739C12.026 13.4532 11.9533 13.0114 11.9745 12.5847C11.9987 12.158 11.9412 11.7313 11.9352 11.3045C11.9291 10.8718 11.9715 10.4451 11.9352 10.0244C11.8989 9.59167 11.8262 9.22851 11.7536 8.81391C11.2815 8.80786 10.8669 8.9047 10.3827 8.98339C9.91059 9.05904 9.42336 8.97733 8.93613 8.95312C8.50942 8.93194 8.07061 8.88957 7.64088 8.85628C7.19299 8.82299 6.7572 8.78668 6.34866 8.73826C5.88866 8.68378 5.43472 8.79576 4.98985 8.84115C4.54499 8.88654 4.10013 8.93799 3.64921 9.01667C3.27698 9.08023 2.9108 9.10141 2.53251 9.13167C2.17541 9.16194 1.80923 9.18917 1.41279 9.2043C1.06476 9.21641 0.722793 9.29207 0.320297 9.30417L0.323323 9.31022Z" fill="white"/>
<path d="M14.4344 8.38477C14.4072 8.79634 14.3588 9.30173 14.3013 9.77988C14.2498 10.2096 14.2226 10.6636 14.1681 11.1205C14.1167 11.5654 13.9956 12.0133 13.9623 12.4581C13.929 12.9181 14.0985 13.3751 14.1136 13.8079C14.1288 14.283 14.0864 14.7339 14.1893 15.1394C14.6493 15.1213 15.1093 15.1455 15.5663 15.1122C16.0232 15.0819 16.4863 15.085 16.9462 15.0486C17.4032 15.0154 17.8572 14.8973 18.3172 14.8731C18.7741 14.8489 19.2311 14.7309 19.6941 14.7248C20.1511 14.7188 20.6141 14.7975 21.0771 14.8186C21.525 14.8398 21.9729 14.8489 22.4238 14.8731C22.8717 14.8973 23.3135 15.0486 23.7614 15.0729C24.2093 15.0971 24.6602 15.1031 25.1081 15.1182C25.556 15.1334 25.9767 15.0214 26.4246 15.0244C26.5577 14.6704 26.6031 14.3223 26.6304 13.9077C26.6576 13.5173 26.6667 13.1179 26.6636 12.7214C26.6606 12.3099 26.591 11.8953 26.6243 11.523C26.6667 11.0267 26.8694 10.5365 26.9118 10.022C26.9542 9.52265 26.9965 8.96884 26.9996 8.46042C26.6001 8.41503 26.1371 8.39384 25.7346 8.38779C25.3321 8.38174 24.9326 8.49674 24.5271 8.51792C24.1246 8.53911 23.7282 8.5845 23.3257 8.61779C22.9232 8.65108 22.5116 8.57845 22.1121 8.61174C21.7096 8.64805 21.3132 8.74489 20.9107 8.77213C20.5082 8.79937 20.1027 8.72976 19.7002 8.73581C19.2674 8.74187 18.8286 8.83568 18.3898 8.8266C17.9601 8.81752 17.5182 8.85384 17.0733 8.8266C16.6466 8.79937 16.2169 8.66318 15.772 8.61476C15.3484 8.56937 14.8732 8.46042 14.4284 8.39082L14.4344 8.38477Z" fill="white"/>
<path d="M6.51486 0.237632C6.5088 0.682496 6.32723 1.08499 6.19407 1.55407C6.06999 1.98985 5.93078 2.43471 5.76736 2.8826C5.60697 3.32142 5.57671 3.80562 5.44658 4.24746C5.31039 4.70745 5.14092 5.13719 5.10763 5.5881C5.07434 6.05718 5.0925 6.49901 5.25592 6.94691C5.61908 6.82283 6.00039 6.74112 6.41196 6.71086C6.79933 6.68059 7.20182 6.66546 7.60734 6.68059C8.00681 6.6927 8.40023 6.85612 8.79365 6.87125C9.20522 6.88941 9.61377 6.91059 9.99206 6.89243C10.3734 6.87427 10.7395 6.65638 11.1178 6.62007C11.4961 6.58375 11.8805 6.59586 12.2587 6.55651C12.637 6.51717 13.0153 6.42638 13.3966 6.40217C13.7749 6.37796 14.1623 6.41125 14.5466 6.41428C14.9552 6.4173 15.3667 6.4052 15.7753 6.42336C16.1838 6.44152 16.5924 6.4748 17.0009 6.49901C17.4095 6.52323 17.818 6.55349 18.2266 6.57165C18.6109 6.5898 19.4885 6.79256 19.7851 6.52928C19.9516 6.38099 20.0091 5.97244 20.0242 5.49126C20.0393 5.02219 20.1483 4.55614 20.1755 4.35943C20.236 3.9297 20.3147 3.46668 20.4237 2.99458C20.5296 2.54366 20.6052 2.07156 20.6718 1.62064C20.7444 1.13946 20.8231 0.603813 20.7596 0.168028C20.3298 0.119607 19.8335 0.243685 19.4038 0.216448C18.971 0.189212 18.5474 0.0802654 18.1176 0.0711865C17.6849 0.0621077 17.2521 0.00763457 16.8224 0.0136871C16.3896 0.0167134 15.9569 -0.0105231 15.5271 0.00460828C15.0944 0.0197397 14.6677 0.119607 14.2379 0.140791C13.8052 0.158949 13.3785 0.28 12.9487 0.298158C12.516 0.319342 12.0832 0.264869 11.6535 0.283026C11.2207 0.301184 10.791 0.331447 10.3613 0.340526C9.92851 0.349605 9.49877 0.23158 9.06601 0.228553C8.63326 0.228553 8.20655 0.23158 7.77379 0.213422C7.34406 0.195264 6.95064 0.283026 6.52091 0.243685L6.51486 0.237632Z" fill="white"/>
</svg>
