<svg width="246" height="411" viewBox="0 0 246 411" fill="none" xmlns="http://www.w3.org/2000/svg">
<path d="M15.596 246.968H20.7664V254.69H6.96343V235.102H15.596V246.974V246.968Z" fill="white"/>
<path d="M41.1535 244.893C41.1535 252.033 38.0382 255.247 31.1334 255.247C24.2287 255.247 21.1133 252.027 21.1133 244.893C21.1133 237.759 24.2352 234.539 31.14 234.539C38.0447 234.539 41.16 237.759 41.16 244.893H41.1535ZM30.1255 244.893C30.1255 247.19 30.3808 247.943 31.14 247.943C31.8992 247.943 32.1544 247.184 32.1544 244.893C32.1544 242.602 31.8992 241.843 31.14 241.843C30.3808 241.843 30.1255 242.602 30.1255 244.893Z" fill="white"/>
<path d="M57.6664 254.69H44.0466L40.951 235.102H49.9762L50.598 247.589H51.2459L51.8677 235.102H60.7555L57.6598 254.697L57.6664 254.69Z" fill="white"/>
<path d="M76.6917 241.339H70.1338V242.825H76.227V246.968H70.1338V248.453H76.6917V254.697H61.5012V235.102H76.6917V241.346V241.339Z" fill="white"/>
<path d="M96.8041 242.825H93.5252V254.69H84.8926V242.825H81.6137V235.102H96.8041V242.831V242.825Z" fill="white"/>
<path d="M116.89 254.69H108.257V248.473H106.503V254.69H97.8708V235.102H106.503V241.319H108.257V235.102H116.89V254.697V254.69Z" fill="white"/>
<path d="M133.789 241.339H127.231V242.825H133.324V246.968H127.231V248.453H133.789V254.697H118.598V235.102H133.789V241.346V241.339Z" fill="white"/>
<path d="M166.414 254.69H154.621L153.999 242.766H153.587L152.965 254.69H140.988L138.422 235.095H147.219L147.84 247.583H148.488L149.11 235.095H158.456L159.078 247.583H159.726L160.347 235.095H168.98L166.414 254.69Z" fill="white"/>
<path d="M188.837 244.893C188.837 252.033 185.722 255.247 178.817 255.247C171.912 255.247 168.797 252.027 168.797 244.893C168.797 237.759 171.912 234.539 178.817 234.539C185.722 234.539 188.837 237.759 188.837 244.893ZM177.802 244.893C177.802 247.19 178.058 247.943 178.817 247.943C179.576 247.943 179.831 247.184 179.831 244.893C179.831 242.602 179.576 241.843 178.817 241.843C178.058 241.843 177.802 242.602 177.802 244.893Z" fill="white"/>
<path d="M201.468 235.102C207.195 235.102 209.27 237.006 209.27 242.242C209.27 245.043 208.667 246.667 207.26 247.727L209.754 254.697H200.611L199.341 249.546H198.582V254.697H189.969V235.102H201.468ZM198.582 240.194V244.448H198.948C200.1 244.448 200.519 243.885 200.519 242.321C200.519 240.757 200.107 240.194 198.948 240.194H198.582Z" fill="white"/>
<path d="M219.152 246.968H224.323V254.69H210.52V235.102H219.152V246.974V246.968Z" fill="white"/>
<path d="M234.67 235.102C242.308 235.102 244.965 237.622 244.965 244.899C244.965 252.177 242.308 254.697 234.67 254.697H225.389V235.102H234.67ZM234.022 241.843V247.943H234.389C235.612 247.943 235.959 247.269 235.959 244.893C235.959 242.517 235.612 241.843 234.389 241.843H234.022Z" fill="white"/>
<path d="M15.596 339.609H20.7664V347.332H6.96343V327.737H15.596V339.609Z" fill="#CE242B"/>
<path d="M41.1535 337.534C41.1535 344.675 38.0382 347.888 31.1334 347.888C24.2287 347.888 21.1133 344.668 21.1133 337.534C21.1133 330.401 24.2287 327.181 31.1334 327.181C38.0382 327.181 41.1535 330.401 41.1535 337.534ZM30.1255 337.534C30.1255 339.832 30.3808 340.584 31.14 340.584C31.8992 340.584 32.1544 339.825 32.1544 337.534C32.1544 335.244 31.8992 334.485 31.14 334.485C30.3808 334.485 30.1255 335.244 30.1255 337.534Z" fill="#CE242B"/>
<path d="M57.6664 347.332H44.0466L40.951 327.737H49.9762L50.598 340.224H51.2459L51.8677 327.737H60.7555L57.6598 347.332H57.6664Z" fill="#CE242B"/>
<path d="M76.6917 333.981H70.1338V335.466H76.227V339.609H70.1338V341.095H76.6917V347.339H61.5012V327.743H76.6917V333.987V333.981Z" fill="#CE242B"/>
<path d="M96.8041 335.466H93.5252V347.332H84.8926V335.466H81.6137V327.737H96.8041V335.466Z" fill="#CE242B"/>
<path d="M116.89 347.332H108.257V341.114H106.503V347.332H97.8708V327.737H106.503V333.954H108.257V327.737H116.89V347.332Z" fill="#CE242B"/>
<path d="M133.789 333.981H127.231V335.466H133.324V339.609H127.231V341.095H133.789V347.339H118.598V327.743H133.789V333.987V333.981Z" fill="#CE242B"/>
<path d="M166.414 347.332H154.621L153.999 335.407H153.587L152.965 347.332H140.988L138.422 327.737H147.219L147.84 340.224H148.488L149.11 327.737H158.456L159.078 340.224H159.726L160.347 327.737H168.98L166.414 347.332Z" fill="#CE242B"/>
<path d="M188.837 337.534C188.837 344.675 185.722 347.888 178.817 347.888C171.912 347.888 168.797 344.668 168.797 337.534C168.797 330.401 171.912 327.181 178.817 327.181C185.722 327.181 188.837 330.401 188.837 337.534ZM177.802 337.534C177.802 339.832 178.058 340.584 178.817 340.584C179.576 340.584 179.831 339.825 179.831 337.534C179.831 335.244 179.576 334.485 178.817 334.485C178.058 334.485 177.802 335.244 177.802 337.534Z" fill="#CE242B"/>
<path d="M201.468 327.737C207.195 327.737 209.27 329.641 209.27 334.877C209.27 337.678 208.667 339.302 207.26 340.362L209.754 347.332H200.611L199.341 342.181H198.582V347.332H189.969V327.737H201.468ZM198.582 332.835V337.089H198.948C200.1 337.089 200.519 336.527 200.519 334.962C200.519 333.398 200.107 332.835 198.948 332.835H198.582Z" fill="#CE242B"/>
<path d="M219.152 339.609H224.323V347.332H210.52V327.737H219.152V339.609Z" fill="#CE242B"/>
<path d="M234.67 327.737C242.308 327.737 244.965 330.257 244.965 337.534C244.965 344.812 242.308 347.332 234.67 347.332H225.389V327.737H234.67ZM234.022 334.485V340.584H234.389C235.612 340.584 235.959 339.91 235.959 337.534C235.959 335.159 235.612 334.485 234.389 334.485H234.022Z" fill="#CE242B"/>
<path d="M49.2626 261.628L48.4314 286.177C44.0072 285.674 39.38 285.34 36.2712 285.34C29.4974 285.34 26.9449 286.93 26.9449 291.374C26.9449 295.144 28.6727 296.904 32.5407 296.904V290.785H49.8844V319.274C44.498 321.035 38.6208 321.873 31.8535 321.873C9.32633 321.879 0 312.743 0 290.877C0 269.011 9.46377 259.874 32.4033 259.874C37.7896 259.874 42.9731 260.378 49.2626 261.635V261.628Z" fill="white"/>
<path d="M78.2951 311.82L77.6733 320.197H51.1408L60.0548 261.543H103.794L112.708 320.197H85.7627L85.1409 311.82H78.2951ZM82.8568 280.313H80.5727L79.4666 295.982H84.0283L82.8568 280.313Z" fill="white"/>
<path d="M194.531 320.204H170.969V288.867H169.032L165.236 320.204H143.815L140.012 288.867H138.075V320.204H114.926V261.549H150.995L152.86 290.962H154.797L156.662 261.549H194.524V320.204H194.531Z" fill="white"/>
<path d="M245.129 280.235H225.507V284.679H243.748V297.081H225.507V301.518H245.129V320.204H199.662V261.549H245.129V280.235Z" fill="white"/>
<path d="M81.8755 409.416H59.7214V379.958H57.9019L54.3285 409.416H34.1901L30.6167 379.958H28.7972V409.416H7.02926V354.283H40.9444L42.6984 381.928H44.5178L46.2718 354.283H81.8755V409.416Z" fill="#CE242B"/>
<path d="M176.977 354.283C193.091 354.283 198.942 359.643 198.942 374.368C198.942 382.242 197.253 386.81 193.287 389.808L200.303 409.416H174.576L171.002 394.926H168.855V409.416H144.62V354.283H176.977ZM168.862 380.593H169.903C173.149 380.593 174.32 379.015 174.32 374.604C174.32 370.193 173.149 368.616 169.903 368.616H168.862V380.593Z" fill="#CE242B"/>
<path d="M245.194 371.849H226.744V376.018H243.898V387.674H226.744V391.85H245.194V409.416H202.444V354.283H245.194V371.849Z" fill="#CE242B"/>
<path d="M113.251 352.712C93.8261 352.712 85.0561 361.77 85.0561 381.856C85.0561 401.942 93.8261 411 113.251 411C132.676 411 141.446 401.942 141.446 381.856C141.446 361.77 132.676 352.712 113.251 352.712ZM124.58 379.271C124.39 380.017 124.181 380.383 123.88 381.286C123.284 381.751 123.271 382.157 122.532 382.504C122.316 383.315 122.008 383.61 121.635 384.487C121.596 384.526 121.478 384.611 121.321 384.729C121.02 384.951 120.581 385.279 120.346 385.554C119.894 386.11 119.645 386.673 119.109 387.275C119.05 387.524 118.441 387.615 118.061 388.499C117.577 388.924 116.975 389.121 116.628 389.494C116.275 390.358 115.915 390.364 115.247 390.737C114.9 391.156 114.311 391.712 114.017 391.909C113.82 391.549 113.356 391.136 112.767 390.626C112.217 390.102 111.896 389.782 111.235 389.265C111.065 389.225 110.541 388.545 110.509 387.864C109.9 387.622 109.52 387.098 108.866 386.889C108.532 386.542 107.904 385.822 107.917 385.534C107.073 385.266 106.719 384.559 106.543 384.461C106.431 384.349 106.3 384.225 106.17 384.101C105.829 383.773 105.443 383.4 105.129 383.06C104.723 382.661 104.154 382.046 104.154 381.358C103.493 381.306 103.002 380.403 102.923 380.017C102.374 379.362 102.603 378.734 102.203 378.053C101.896 377.556 102.033 377.294 102.662 376.587C102.923 375.802 103.179 375.18 103.735 374.591C104.128 374.663 104.435 374.087 105.253 374.205C105.908 373.819 106.3 373.806 107.171 374.107C107.734 374.061 108.146 374.369 108.506 374.774C109.239 375.023 109.553 375.161 109.907 375.54C110.424 375.933 110.816 375.854 111.268 376.699C111.49 376.98 112.106 377.484 112.158 377.831C112.662 378.138 113.068 378.505 113.768 378.269C114.135 377.706 114.717 377.562 115.214 376.928C116.039 376.6 116.242 376.325 116.896 375.606C117.283 375.154 118.186 374.748 118.722 374.63C119.135 374.434 119.986 374.441 120.444 374.467C121.098 374.84 121.615 374.65 121.844 375.174C122.852 375.003 122.97 375.71 123.238 375.965C123.749 376.07 124.312 376.515 124.292 377.504C124.685 377.935 124.868 378.453 124.58 379.303V379.271Z" fill="#CE242B"/>
<path d="M147.069 168.882C145.544 167.972 146.218 165.047 146.408 163.358C145.066 161.447 145.917 159.457 144.968 156.584C144.464 155.236 145.858 153.011 145.341 150.439C145.701 148.698 145.132 145.641 146.27 144.09C145.478 141.61 146.388 139.254 147.049 137.054C146.218 135.359 147.075 133.88 147.547 131.91C145.001 134.24 144.444 131.936 141.211 132.571C137.219 133.579 138.816 133.625 135.164 133.474C131.531 135.294 131.23 133.651 128.167 134.653C125.864 134.692 125.065 135.425 121.498 135.831C118.776 136.308 117.82 135.89 116.118 136.845C111.812 137.153 111.439 136.374 108.409 137.755C106.223 137.198 104.2 137.65 102.793 137.912C102.623 139.312 104.017 142.722 103.042 144.142C104.469 146.911 103.062 149.077 103.886 149.791C105.058 152.212 105.11 153.894 104.305 155.831C105.784 158.541 104.94 160.177 105.084 163.705C106.478 164.34 107.46 167.743 106.079 169.294C106.714 171.434 106.674 173.869 106.903 175.217C107.106 175.793 107.25 176.493 107.362 177.22C109.619 177.305 110.935 177.423 112.309 177.017C115.359 179 116.865 179.092 119.509 178.483C121.178 179 123.167 178.535 125.458 179.02C128.069 178.319 129.633 179.301 131.551 179.556C134.437 178.778 135.007 177.946 138.273 178.45C139.902 177.94 142.154 176.86 144.477 176.592C144.935 176.624 145.622 176.539 146.467 176.232C146.368 175.917 146.257 175.59 146.126 175.243C145.812 172.979 146.971 172.056 147.062 168.869L147.069 168.882Z" fill="white"/>
<path d="M186.9 102.668C184.047 103.159 181.887 100.927 180.866 100.685C178.058 99.7426 177.194 99.2321 174.478 97.7006C171.919 96.3 170.368 96.6142 169.55 95.6128C167.659 93.6821 165.689 92.8837 163.876 91.2278C162.573 91.5551 160.322 89.3495 158.869 88.4267C159.34 90.3705 158.646 91.2278 157.71 93.5774C156.087 97.7988 156.742 97.5043 156.526 99.9062C155.806 104.409 155.237 103.067 154.111 107.007C153.764 110.836 153.371 110.535 153.116 113.598C152.311 116.602 151.146 116.569 150.603 119.063C150.577 122.46 149.778 123.238 149.647 125.575C148.626 128.546 149.235 130.497 148.018 131.707C149.647 132.29 152.075 132.283 153.96 131.164C155.472 132.231 157.553 131.609 160.25 131.792C161.958 132.48 163.98 132.48 165.61 132.224C169.21 133.095 169.858 133.101 173.025 132.44C174.714 133.095 177.286 132.401 179.204 132.65C181.442 132.159 183.556 134.463 185.1 133.37C187.221 133.527 188.818 133.507 190.971 133.566C191.9 133.514 192.699 133.527 193.452 133.566C193.72 132.794 193.87 131.871 193.694 130.713C195.723 129.384 196.207 127.205 196.168 124.718C196.672 122.774 196.901 121.229 196.495 118.258C198.242 115.646 198.19 114.265 198.714 112.439C198.57 111.602 198.563 110.306 198.563 109.049C196.678 108.46 194.171 107.551 192.162 106.68C190.199 106.013 187.548 104.52 186.894 102.648L186.9 102.668Z" fill="white"/>
<path d="M142.507 38.7582C141.198 40.918 140.622 42.9927 139.051 45.3554C138.966 46.2586 136.904 46.8738 135.995 50.1331C134.509 51.8544 132.519 52.823 131.498 54.3152C130.693 57.496 129.43 57.6989 127.297 59.3285C126.289 60.9516 124.855 62.8496 123.919 63.6612C125.464 63.4321 126.596 64.8131 128.612 67.804C130.019 68.9821 131.446 69.2831 133.22 71.6327C135.962 72.4116 136.852 72.9548 137.925 74.519C141.335 76.1486 140.713 76.1094 144.32 77.3005C146.689 79.709 146.211 78.6553 149.065 81.5088C151.545 82.5822 150.753 82.7523 153.711 84.6045C156.126 85.2852 158.365 85.4619 158.659 87.602C159.477 85.8742 159.922 84.1529 161.218 83.1385C162.167 80.7562 163.443 80.0821 164.451 77.6343C165.512 75.4614 166.336 73.4456 168.483 71.1811C168.496 69.4991 169.936 68.0789 170.924 65.7359C171.356 64.2764 171.854 61.4621 174.111 61.0236C174.471 58.0719 176.795 56.9789 176.978 54.4396C177.063 54.2629 177.155 54.0927 177.246 53.9356C177.089 53.7393 176.932 53.5364 176.769 53.3073C175.283 51.6711 174.707 50.336 171.611 50.048C170.073 48.3136 169.609 47.1683 166.67 46.1015C166.362 44.786 164.124 43.5163 162.148 41.9848C159.523 41.9652 158.555 39.2557 157.043 38.6535C154.405 38.7321 152.527 37.8027 149.732 37.2922C148.947 35.7935 147.369 35.7084 145.478 35.4204C144.529 36.3432 143.161 37.6914 142.5 38.7713L142.507 38.7582Z" fill="white"/>
<path d="M100.653 36.5265C102.963 36.8341 103.853 36.1534 107.008 35.9178C108.107 34.4845 109.58 34.0525 112.492 33.7711C114.515 33.6075 116.491 32.8352 118.278 32.6585C121.092 32.5931 123.455 32.737 125.706 31.8404C127.041 31.8208 130.124 32.953 130.791 32.0695C134.457 33.7188 135.772 33.5224 138.351 34.2227C139.378 33.974 142.716 33.9936 144.241 35.1848C144.666 35.283 145.085 35.3484 145.491 35.4139C145.969 34.9492 146.342 34.5892 146.46 34.4256C147.324 31.199 148.246 30.0013 148.6 27.0758C150.995 25.505 150.858 24.0914 152.69 22.1737C153.292 18.8752 153.842 17.4942 154.13 14.7978C154.713 11.6759 153.816 9.98081 152.245 8.6653C151.82 5.2162 149.64 3.9596 147.821 3.83525C146.761 3.06296 145.995 0.674113 142.566 1.76055C141.525 0.0654479 139.81 0.981719 137.343 0C135.746 0.130896 132.768 0.530128 131.426 1.42022C129.62 2.09433 126.675 3.94651 125.543 5.72669C123.612 8.57367 123.042 9.62084 120.333 11.172C118.919 13.6263 116.962 14.4182 115.954 16.5714C113.631 17.756 112.028 16.6761 110.123 15.8515C109.763 14.68 107.368 13.227 106.451 12.3566C104.449 9.64048 103.133 10.0921 101.131 8.986C99.7103 7.86029 98.5518 7.51342 95.875 7.02256C94.4221 5.78559 92.8317 4.92168 90.901 5.36018C87.7202 4.72534 86.372 4.98059 84.2777 6.64951C81.3783 6.64951 80.5799 8.81583 79.1793 8.75693C77.5365 11.0672 76.9606 13.3776 76.437 16.2376C74.5979 19.0061 74.2445 19.9943 75.5731 21.5716C77.314 23.7445 76.8166 26.0548 79.0615 28.0575C79.5261 29.373 81.6794 32.2658 84.0159 32.1284C84.3627 34.5238 86.6403 36.3759 88.2634 37.5671C89.52 38.6012 91.0515 39.7138 92.3997 40.689C93.0804 40.2897 93.8854 39.7792 94.9064 39.1182C96.1892 38.1954 98.6566 37.5278 100.666 36.5265H100.653Z" fill="#CE242B"/>
<path d="M222.609 91.9739C222.393 91.6271 221.463 89.4149 220.573 87.0064C219.984 84.8074 218.191 84.022 215.867 81.0834C213.675 79.7679 212.549 80.2849 210.782 78.9498C208.446 76.0832 206.731 75.5203 203.956 74.5452C202.843 72.3068 202.935 70.1405 204.296 67.8368C204.97 66.6849 207.693 64.8 208.151 64.3418C208.871 61.5145 210.298 60.8076 210.389 57.8494C212.32 56.6975 210.494 55.31 211.751 53.5887C211.725 50.8661 212.137 49.5441 212.556 46.5924C212.052 45.5845 211.083 42.5542 210.455 40.3355C209.087 39.0855 206.953 36.8864 206.502 35.6953C204.067 34.406 201.089 33.9609 199.983 34.0395C196.076 33.0774 194.132 34.4125 192.777 34.8445C191.887 36.4218 188.975 38.2478 187.705 39.0986C186.867 41.4874 183.863 42.9862 184.145 44.3606C182.751 45.7481 180.545 48.2089 180.859 48.8045C179.655 51.4486 178.215 52.306 177.253 53.9291C178.961 56.0496 180.264 56.2459 181.409 58.1439C183.229 60.1532 183.837 61.6846 185.951 63.6874C186.815 65.8799 187.378 67.0841 188.746 69.3224C188.687 70.3303 190.212 73.1315 192.188 74.1132C193.334 76.718 194.165 79.4669 193.674 80.2784C194.302 82.7 194.518 84.683 196.357 86.6596C196.678 88.6492 197.215 90.1218 198.399 92.7462C198.733 94.7228 197.732 96.7974 199.08 99.7164C199.001 101.176 198.393 103.205 198.458 106.039C198.57 106.726 198.563 107.878 198.563 109.075C198.615 109.089 198.668 109.108 198.72 109.128C199.872 108.846 201.848 111.091 205.572 110.823C206.345 111.026 209.853 111.32 211.783 110.875C214.84 109.782 216.666 109.9 219.199 107.734C219.585 107.636 221.267 106.588 221.038 103.597C222.785 102.059 222.857 100.391 223.505 98.6038C224.389 96.9218 223.872 94.0748 222.609 91.9936V91.9739Z" fill="#CE242B"/>
<path d="M189.217 143.351C188.164 144.097 186.233 146.859 184.597 147.232C184.112 149.169 182.26 152.225 182.417 153.011C179.361 155.57 178.078 155.982 176.448 157.585C176.586 160 174.668 161.237 172.26 162.527C170.519 163.639 167.927 163.927 167.089 165.06C165.309 166.715 164.589 168.973 162.286 169.837C160.603 170.106 157.73 170.42 155.793 172.638C154.458 172.383 152.246 174.635 150.053 174.052C148.712 175.204 147.481 175.878 146.48 176.238C147.252 178.666 147.376 180.44 148.463 183.45C147.822 184.38 147.998 187.475 149.765 189.033C151.022 191.553 152.737 192.849 155.898 193.837C156.526 195.211 158.398 195.728 160.316 196.056C162.253 196.677 164.229 195.035 166.219 194.832C167.41 193.608 169.897 192.05 171.193 191.854C172.194 189.819 174.505 189.524 175.552 186.33C176.952 184.701 177.862 182.659 178.412 181.271C177.908 178.849 178.157 175.119 179.165 173.149C180.329 171.33 179.636 168.934 181.455 166.663C181.39 163.921 183.019 164.857 186.187 163.738C186.449 164.903 189.237 165.217 191.371 165.361C193.164 165.675 195.507 166.355 197.438 166.054C198.144 164.85 199.853 166.218 203.19 164.798C203.21 163.947 206.083 163.947 206.6 162.232C210.154 161.277 211.64 158.541 213.381 158.207C214.114 155 214.637 153.004 215.194 151.924C215.338 149.81 215.658 147.035 213.8 145.569C213.479 142.775 211.345 139.862 211.358 138.363C209.506 137.526 206.077 137.611 203.91 135.981C203.184 135.621 199.676 134.227 198.694 134.247C196.561 133.972 195.108 133.684 193.458 133.586C193.007 134.888 192.234 135.745 192.189 136.498C190.703 138.573 189.747 140.752 189.224 143.351H189.217Z" fill="#CE242B"/>
<path d="M99.5534 174.51C98.5978 172.848 95.8687 172.56 94.311 172.233C92.7206 171.768 89.6511 170.538 88.6825 168.489C86.6471 168.45 84.4284 167.88 82.3995 166.126C80.7502 164.32 79.5656 163.508 77.576 161.12C76.0379 159.608 75.6911 159.451 73.0601 157.415C71.3584 156.178 69.912 155.046 68.3609 152.402C68.0991 151.492 65.3372 149.974 65.2783 148.246C64.3424 145.752 62.536 143.475 61.6525 142.951C61.6263 142.853 61.5936 142.755 61.5609 142.663C60.697 142.833 59.8265 142.997 58.8382 143.259C57.202 145.098 54.7936 144.463 52.4832 146.014C50.4609 146.845 48.0132 148.567 46.6977 149.509C43.8376 151.819 43.8768 153.96 41.5927 155.511C41.416 157.775 41.2262 159.798 41.9592 161.159C41.6647 162.998 42.4501 165.42 44.1125 166.231C44.8651 169.445 45.7748 170.25 47.5157 171.087C48.7527 173.371 50.2057 173.764 53.2228 174.497C55.147 175.597 56.8224 175.518 60.0817 175.996C61.5085 175.551 64.4275 176.781 66.548 176.33C69.5259 176.709 70.6647 176.86 73.5771 176.618C76.6859 177.848 76.0445 179.131 77.4582 181.186C77.3011 182.312 76.2801 185.034 77.7461 185.983C77.576 188.758 76.6728 189.472 77.2618 191.605C78.5446 193.968 78.7082 195.153 80.3379 198.058C79.919 198.144 81.7188 200.172 83.7477 202.391C85.0436 202.921 86.8827 204.806 87.4586 206.612C89.638 207.123 93.0217 207.489 94.4419 208.353C96.8046 208.137 98.4604 206.946 100.823 205.12C103.912 204.852 105.575 202.123 106.242 201.298C107.158 199.452 106.713 197.64 108.127 195.421C107.342 193.255 109.325 191.023 108.624 188.87C108.317 186.913 108.598 184.197 107.865 181.762C107.721 180.918 107.643 178.993 107.374 177.239C106.779 177.22 106.124 177.2 105.385 177.187C103.578 175.296 102.826 175.662 99.5534 174.523V174.51Z" fill="#CE242B"/>
<path d="M52.2738 112.184C51.1285 109.972 51.6193 107.191 52.2934 106.287C51.8811 104.455 51.6782 100.829 52.0644 98.5515C51.4426 98.041 53.5631 95.266 53.2752 92.8902C54.5317 91.3587 53.8315 87.8704 54.1914 87.5431C54.6037 84.0678 55.16 82.3073 55.5789 80.4878C57.4834 78.0794 58.295 77.5885 58.2557 74.5714C60.5857 72.9221 60.1472 70.6641 60.926 69.918C62.2808 66.7045 63.6748 66.4296 66.0637 64.5186C67.1632 62.1952 67.8569 59.4725 69.1724 58.3665C69.2641 58.2028 69.3557 58.0392 69.4539 57.8821C68.603 56.6975 67.065 55.598 65.2718 55.6045C63.5374 52.6659 62.8764 51.6319 59.2113 50.6371C58.2688 50.4734 56.8944 51.3897 54.1063 51.7169C51.6848 53.7196 51.1285 54.3938 48.3731 55.0679C48.2684 56.7237 46.3377 56.7826 45.8534 59.6885C44.0405 60.1466 43.687 62.5682 43.4841 65.4021C42.653 68.1836 43.759 69.9442 42.81 72.7454C43.687 75.1473 43.4122 77.0191 45.0942 78.4786C45.369 80.8216 44.5051 84.2576 44.4593 85.9789C45.8795 88.7212 43.0653 89.2644 41.7301 90.0105C39.23 90.2003 37.6593 89.284 34.6945 90.0629C32.9994 90.5406 31.7428 90.9857 29.8579 91.7907C28.8631 93.7149 27.0436 93.1782 25.3027 95.05C24.1574 95.9728 23.4113 98.4664 21.3038 98.7413C18.9935 101.169 18.5092 102.963 17.593 105.908C16.801 108.166 16.8403 109.39 17.4882 111.078C19.1441 114.802 18.2932 116.458 19.9622 118.435C21.7489 120.437 24.2948 121.857 25.7674 121.988C27.3578 121.825 29.6157 121.635 33.0845 121.851C35.1788 122.113 38.0323 122.656 39.0141 122.97C41.2327 121.707 43.53 121.092 44.5902 121.308C47.1558 120.045 49.525 119.992 50.5852 119.613C51.5211 119.213 52.3131 118.978 53.0134 118.821C52.8955 118.448 52.7712 118.075 52.6469 117.721C52.8956 117.014 52.7123 114.802 52.2673 112.178L52.2738 112.184Z" fill="#CE242B"/>
<path d="M82.7331 110.718C79.9843 110.6 78.5117 110.424 76.3454 112.59C74.1529 111.654 71.9211 113.526 70.6579 114.377C68.0597 115.156 66.3646 114.985 64.0542 115.031C60.9782 115.993 59.3682 116.556 57.732 117.885C56.0827 118.572 54.8392 118.428 53.0197 118.827C53.5957 120.614 54.1782 122.545 55.1402 123.913C54.8457 126.177 55.3169 128.965 56.9401 131.04C57.5225 133.121 58.3865 134.083 58.5959 135.929C59.0148 138.946 60.8148 140.451 61.5609 142.663C62.5099 142.48 63.4587 142.29 64.5517 141.97C67.4772 141.145 69.0414 141.008 72.1109 140.765C73.3151 140.124 76.653 140.864 77.2289 139.987C79.2578 140.386 82.4713 138.92 84.7751 138.645C85.6717 139.267 88.6561 139.496 90.1811 139.299C93.5189 138.599 94.5006 138.475 96.8502 138.069C97.8974 137.46 100.496 137.428 101.916 137.46C101.935 136.537 101.484 134.882 100.227 133.042C98.4079 128.507 98.3031 129.567 96.1826 127.041C96.0714 123.749 94.6053 124.135 93.5058 121.164C92.8971 116.674 92.3866 116.589 90.1811 113.971C87.8773 106.556 87.7857 108.035 82.7462 110.725L82.7331 110.718Z" fill="white"/>
<path d="M118.605 60.1532C116.426 58.6151 115.169 57.653 112.591 56.1805C111.975 56.1281 109.809 54.0141 109.371 51.658C107.132 51.1083 105.555 49.4721 103.173 49.0597C101.831 48.006 99.2785 45.8135 99.1869 44.8187C96.1109 44.2951 94.5336 42.011 93.866 41.7688C93.4275 41.4416 92.917 41.0751 92.3869 40.6889C90.8554 41.5921 89.9849 41.9586 88.8527 42.3906C87.3867 42.8749 84.3368 44.5569 82.8511 45.8724C81.8563 46.6513 79.8667 47.777 78.6886 49.4982C76.1362 52.0049 75.3639 53.1895 72.9881 53.4382C72.2813 54.6294 70.5731 56.0561 69.4539 57.869C69.9906 58.6151 70.2589 59.394 70.1477 59.9568C71.8493 61.9857 72.5234 64.5578 73.5117 65.8733C74.8861 67.6797 76.1492 70.7426 77.0132 71.7571C78.4072 74.0543 78.3941 76.6657 79.3431 78.4655C80.6979 80.73 80.2463 82.4578 82.2424 84.2642C82.033 86.1425 83.4271 87.7395 83.6888 89.8403C84.0488 91.4176 85.0567 94.5526 85.1287 95.5081C85.1483 98.4336 86.274 100.574 86.8173 102.832C87.6746 103.728 87.5895 105.253 87.7008 107.138C88.3487 104.658 90.2598 104.9 91.4575 103.702C94.1147 100.515 94.1671 100.914 95.5349 98.8656C97.4329 95.4296 98.0612 95.6259 99.488 92.936C101.144 90.4686 100.64 90.5864 103.199 88.7343C105.47 85.5469 106.111 86.2669 108.088 84.3427C108.971 81.0114 109.286 80.9263 112.263 78.0466C114.332 76.3973 113.756 76.057 116.059 73.0071C117.787 71.5215 117.709 71.5084 120.307 68.9494C122.323 67.0056 120.601 64.1389 123.651 64.0669C122.807 62.8889 120.948 61.665 118.612 60.1401L118.605 60.1532Z" fill="white"/>
</svg>
