<svg width="27" height="18" viewBox="0 0 27 18" fill="none" xmlns="http://www.w3.org/2000/svg">
<path d="M25.6505 5.14858C25.4514 4.80649 25.1457 4.53168 24.9214 4.20361C24.6971 3.87553 24.4896 3.54184 24.2456 3.22778C24.0017 2.91653 23.7886 2.57724 23.5278 2.28C23.267 1.97997 22.9445 1.73601 22.6753 1.44719C22.3445 1.09107 22.1061 0.748972 21.7892 0.603159C21.4584 0.448934 21.1387 0.535861 20.6536 0.810662C20.3087 1.00695 19.9273 1.13033 19.6245 1.3883C19.3385 1.63226 19.1702 1.96034 18.8281 2.19588C19.016 2.48751 19.1422 2.74268 19.3357 3.03711C19.5263 3.32873 19.7086 3.62596 19.9049 3.91759C20.0984 4.20641 20.275 4.51206 20.4741 4.79807C20.6732 5.08689 20.8891 5.36169 21.091 5.64771C21.2957 5.93373 21.5369 6.1889 21.7444 6.46931C21.9547 6.75252 22.1762 7.02171 22.3893 7.29651C22.6052 7.57692 22.7903 7.87416 23.009 8.14335C23.2305 8.41815 23.4128 8.72379 23.6371 8.98458C23.8446 9.22573 24.069 9.58185 24.3045 9.88749C24.5765 10.2408 24.8934 10.5268 25.2271 10.4623C25.4626 10.4175 25.7346 10.1763 25.9898 9.92394C26.2421 9.67438 26.4749 9.39678 26.6067 9.21731C26.8562 8.88082 26.9936 8.53031 26.9992 8.1798C27.0076 7.82088 26.8927 7.45074 26.7413 7.09182C26.6011 6.75813 26.3543 6.4637 26.158 6.14123C25.9589 5.81315 25.8215 5.45143 25.6477 5.14858H25.6505Z" fill="white"/>
<path d="M18.1553 3.74033C17.7991 3.34215 17.6337 2.73086 17.0897 2.87107C16.6747 2.98043 16.4055 3.69827 16.2036 4.01513C15.9541 4.4049 15.8335 4.73298 15.7886 5.09471C15.7409 5.46765 15.7101 5.8434 15.7325 6.27803C15.7578 6.75192 15.7073 7.14169 15.5783 7.51183C15.4521 7.87636 15.2643 8.22687 14.9586 8.59421C14.6838 8.92229 14.2716 9.30925 13.8566 9.67659C13.3967 9.67659 12.9004 9.76912 12.4321 9.92054C12.2583 9.67659 12.1377 9.34851 11.9891 9.07932C11.7956 8.7232 11.6189 8.45681 11.5516 8.18481C11.4647 7.84552 11.4675 7.53426 11.546 7.18936C11.6077 6.91176 11.7732 6.63135 11.9134 6.26121C12.0255 5.96958 11.9638 5.64431 11.9779 5.34427C11.9919 5.03302 12.1068 4.70214 12.0031 4.41612C11.9022 4.13291 11.6414 3.9226 11.4142 3.69827C11.117 3.40384 10.8787 3.32253 10.6431 3.29448C10.3459 3.26084 10.0963 3.32813 9.8047 3.52722C9.57756 3.68425 9.34763 3.90017 9.06722 4.09365C8.77279 4.29835 8.44752 4.46098 8.15589 4.67129C7.86707 4.8844 7.62312 5.1592 7.3399 5.37792C7.05669 5.59664 6.70057 5.72563 6.42016 5.95276C6.14256 6.17989 5.85093 6.393 5.57613 6.62574C5.30133 6.85848 5.0742 7.1445 4.80501 7.38284C4.53582 7.62119 4.30027 7.89319 4.03388 8.13714C3.7675 8.3811 3.44783 8.56336 3.18705 8.81012C2.79728 9.17746 2.29535 9.45226 2.45238 9.99064C2.57296 10.4028 3.25996 10.7001 3.58523 10.8908C3.98341 11.1263 4.32831 11.3198 4.69285 11.3562C5.06579 11.3927 5.45556 11.2749 5.89019 11.2413C6.36408 11.202 6.77628 11.188 7.14923 11.303C7.51656 11.4179 7.86427 11.6423 8.24282 11.9367C8.57651 12.1975 8.93543 12.6237 9.31118 13.0219C9.22705 13.3219 9.13732 13.6275 9.13172 13.9304C9.12611 14.2388 9.26912 14.5249 9.34763 14.8221C9.42614 15.1137 9.50746 15.3941 9.6729 15.6605C9.85797 15.9577 10.0458 16.2438 10.3094 16.4597C10.573 16.6756 10.9039 16.7765 11.2264 16.9055C11.5404 17.0289 11.8517 17.1691 12.1994 17.2056C12.5331 17.242 12.8668 17.1523 13.2145 17.1046C13.5453 17.0597 13.9127 17.1242 14.2436 17.0037C14.5576 16.8887 14.7988 16.6055 15.0988 16.4204C15.4409 16.2073 15.7746 16.0222 16.041 15.753C16.3214 15.4698 16.5682 15.1698 16.7588 14.8417C16.9607 14.4968 17.1318 14.1435 17.2271 13.7762C17.3253 13.392 17.3421 12.9966 17.3112 12.6153C17.4346 12.5424 17.5412 12.4274 17.6702 12.3601C18.0319 12.175 18.3375 12.0404 18.6095 11.9787C18.9516 11.903 19.2769 11.9563 19.619 12.046C19.8938 12.1161 20.1742 12.2872 20.5387 12.4386C20.8276 12.5592 21.1388 12.6265 21.4389 12.6489C21.7501 12.6714 22.0642 12.6377 22.3558 12.5424C22.6418 12.4498 22.8998 12.276 23.1325 12.0573C23.4354 11.7684 23.5868 11.5245 23.6232 11.2861C23.6681 10.9917 23.5672 10.7001 23.3737 10.4C23.2222 10.1673 23.0204 9.92895 22.8353 9.64294C22.639 9.3401 22.3838 9.07932 22.1819 8.78489C21.9772 8.48765 21.8426 8.14555 21.6295 7.85673C21.4192 7.56511 21.2342 7.25386 21.0182 6.96784C20.7995 6.68182 20.5668 6.40702 20.3425 6.12661C20.1181 5.8462 19.8966 5.56299 19.6667 5.28539C19.4367 5.00778 19.103 4.81991 18.8703 4.54791C18.6348 4.27591 18.3936 4.01233 18.1553 3.74314V3.74033ZM13.9127 14.7296C13.6267 14.909 13.2649 14.8445 12.9593 14.7716C12.6536 14.7015 12.3115 14.5922 12.1321 14.3061C11.9526 14.0201 11.9162 13.6416 11.9863 13.3359C12.0564 13.0303 12.2975 12.7695 12.5835 12.5928C12.8696 12.4134 13.1948 12.3769 13.5005 12.4498C13.8061 12.5199 14.0921 12.691 14.2688 12.977C14.4483 13.263 14.524 13.6079 14.4539 13.9136C14.3838 14.2192 14.1987 14.5501 13.9099 14.7296H13.9127Z" fill="white"/>
<path d="M9.77123 1.62647C9.71795 1.39373 9.48241 1.12735 9.22163 0.880587C8.96365 0.636631 8.67763 0.415108 8.49537 0.288924C8.15046 0.0505768 7.79995 -0.00270087 7.44944 0.00010322C7.09052 0.00290731 6.74562 0.10105 6.3895 0.263687C6.06142 0.415108 5.76699 0.647847 5.45293 0.852546C5.13046 1.06285 4.74911 1.17221 4.45187 1.35728C4.11538 1.56759 3.83217 1.85921 3.5125 2.09195C3.19284 2.3275 2.85074 2.53219 2.5479 2.78737C2.24225 3.04254 1.95624 3.31734 1.66461 3.58373C1.37299 3.85292 1.06734 4.11089 0.786932 4.3885C0.442029 4.7306 0.223311 5.06428 0.0831062 5.38675C-0.0599022 5.72044 -0.0290573 6.02609 0.259764 6.49998C0.467266 6.83927 0.624295 7.201 0.890683 7.49543C1.14586 7.77584 1.45991 7.96371 1.70667 8.3002C1.99269 8.10391 2.23664 7.92726 2.52547 7.72536C2.80868 7.52627 3.12834 7.36924 3.41436 7.16454C3.69757 6.96265 3.9864 6.76356 4.26961 6.55325C4.55002 6.34575 4.81921 6.11862 5.09681 5.90831C5.37722 5.6952 5.63239 5.45686 5.90719 5.24094C6.1848 5.02222 6.44558 4.79229 6.71477 4.57076C6.98677 4.34644 7.31765 4.19782 7.58123 3.97069C7.85043 3.74076 8.07475 3.46595 8.32993 3.23322C8.56547 3.0201 8.91878 2.78737 9.21882 2.54061C9.56372 2.25739 9.84694 1.96296 9.77403 1.62928L9.77123 1.62647Z" fill="white"/>
</svg>
