<svg width="20" height="22" viewBox="0 0 20 22" fill="none" xmlns="http://www.w3.org/2000/svg">
<path d="M19.9767 4.28146C19.9585 3.84968 19.7793 3.50178 19.6061 3.20357C19.433 2.90536 19.1505 2.73762 18.7466 2.56056C18.4975 2.44873 18.206 2.29031 17.8688 2.22508C17.5529 2.16295 17.1642 2.14742 16.8696 2.19091C16.821 1.61003 16.7268 0.96702 16.5871 0.538348C16.5507 0.429627 16.2257 0.24946 15.5787 0.181121C15.2598 0.146952 14.8741 0.10657 14.4489 0.081719C14.0996 0.0630811 13.7199 0.0506558 13.316 0.0351242C12.9546 0.0226989 12.5749 0.10657 12.1801 0.0972506C11.8125 0.0879316 11.4329 0.0599747 11.0472 0.0537621C10.6736 0.0506558 10.297 0.0258052 9.91427 0.0226989C9.53765 0.0226989 9.15799 0.0289116 8.78137 0.0289116C8.40172 0.0289116 8.02206 0.115888 7.64848 0.118995C7.26275 0.122101 6.88309 0.0413368 6.51558 0.0475495C6.12378 0.0537621 5.74412 -0.00836428 5.38269 0.000954681C4.98177 0.0102736 4.60515 0.137633 4.25283 0.150058C3.83066 0.16559 3.49352 0.193546 3.1655 0.209078C3.17157 0.631537 3.10779 1.02604 3.13209 1.45471C3.15639 1.87717 3.20194 2.26236 3.2475 2.68792C2.62487 2.6786 1.95971 2.80285 1.58613 2.97991C1.25203 3.14144 0.960455 3.39306 0.726587 3.66952C0.492718 3.94909 0.383377 4.31563 0.25885 4.66354C0.134323 5.01145 0.0249821 5.36246 0.0128331 5.72901C0.000684057 6.167 -0.0296884 6.6081 0.085727 6.99949C0.207217 7.41263 0.520054 7.72948 0.759996 8.06496C1.00601 8.40666 1.23077 8.77009 1.58005 8.99996C1.91719 9.22672 2.31203 9.39446 2.7251 9.49076C3.11083 9.58084 3.52997 9.6088 3.96126 9.56531C4.29839 9.53425 4.74487 9.264 5.1063 9.0186C5.32194 9.32302 5.50114 9.64918 5.76235 9.9039C6.02659 10.1586 6.36676 10.3357 6.67352 10.5407C6.97421 10.7395 7.30527 10.8948 7.64848 11.0439C7.9765 11.1868 8.30756 11.3483 8.67203 11.4415C8.85427 11.4881 9.05776 11.4881 9.24303 11.5254C9.35541 11.864 9.47386 12.2647 9.54676 12.7244C9.60447 13.0941 9.70166 13.5041 9.71077 13.9545C9.71684 14.3335 9.57713 14.7435 9.53461 15.1815C9.49816 15.5636 9.51335 16.0109 9.43134 16.4396C9.05472 16.5545 8.60521 16.5918 8.25289 16.7689C7.89753 16.949 7.59381 17.2317 7.2749 17.4678C6.95295 17.707 6.71908 18.0362 6.4518 18.3282C6.18149 18.6264 5.88384 18.8936 5.68641 19.2415C5.48596 19.5894 5.23083 19.9622 5.11845 20.3536C5.25816 20.8661 5.70464 21.2544 6.14504 21.4625C6.62189 21.6893 7.19289 21.7421 7.56647 21.8011C8.0251 21.8757 8.52624 21.8415 9.02131 21.8694C9.51942 21.8974 10.0115 21.8632 10.4731 21.8601C10.8376 21.8601 11.2233 22.0248 11.6121 21.9968C11.9826 21.972 12.3653 21.9191 12.7419 21.8632C13.1155 21.8073 13.4557 21.5681 13.8202 21.4749C14.1907 21.3786 14.6038 21.4315 14.95 21.2917C15.3054 21.1457 15.6911 20.9375 16.007 20.7325C15.9645 20.3908 15.8855 19.9497 15.761 19.577C15.6486 19.2322 15.4208 18.9122 15.2477 18.5767C15.0776 18.2475 14.9348 17.8809 14.7101 17.5889C14.4793 17.2907 14.1603 17.0671 13.8779 16.8465C13.5802 16.6136 13.2401 16.4986 12.8938 16.3961C12.6387 16.3216 12.3501 16.2377 12.0859 16.2004C12.01 15.8028 12.0282 15.3897 11.9826 15.0449C11.928 14.6348 11.767 14.2714 11.7488 13.9266C11.7275 13.5041 11.8885 13.1283 11.9128 12.7959C11.9462 12.3579 11.931 11.9416 12.0282 11.6372C12.417 11.5875 12.8209 11.5254 13.1854 11.4043C13.5529 11.2831 13.9417 11.1899 14.2758 10.9849C14.6007 10.7861 14.95 10.5687 15.2325 10.2829C15.4967 10.0157 15.6152 9.60259 15.8339 9.25157C16.086 8.84154 16.3745 8.55576 16.5264 8.15815C17.0366 8.17989 17.5864 7.99351 17.8992 7.90343C18.2819 7.79471 18.6646 7.62386 18.9926 7.38468C19.3206 7.14238 19.5879 6.82864 19.7701 6.45278C19.9281 6.12662 19.9767 5.76007 19.9767 5.38731C19.9767 5.01455 20.0131 4.63248 19.9949 4.28768L19.9767 4.28146ZM2.98326 6.25087C2.7008 5.89054 2.61879 5.61407 2.76762 5.35004C2.91644 5.086 3.2718 4.80643 3.59071 4.65422C3.65449 4.99592 3.71828 5.40595 3.79725 5.73833C3.87925 6.07691 4.00074 6.4621 4.10097 6.78826C3.70613 6.88456 3.3204 6.68265 2.98326 6.25087ZM18.124 5.14502C18.0146 5.54263 17.392 6.11419 16.8513 6.14525C16.8848 5.76628 16.8453 5.36246 16.8665 4.9866C16.8908 4.60763 16.9668 4.21623 16.9698 3.83726C17.31 3.72233 17.7413 3.85279 17.9812 4.12925C18.2151 4.3995 18.212 4.80954 18.1209 5.14502H18.124Z" fill="white"/>
</svg>
