<svg width="104" height="105" viewBox="0 0 104 105" fill="none" xmlns="http://www.w3.org/2000/svg">
<path d="M65.3502 84.8793C64.5841 84.4206 64.9228 82.9508 65.0167 82.1065C64.3391 81.1474 64.7665 80.1467 64.2922 78.7029C64.0368 78.0254 64.7404 76.9048 64.4798 75.6174C64.6622 74.7417 64.3756 73.2042 64.9489 72.4276C64.5528 71.1819 65.0062 69.9935 65.3398 68.8937C64.9228 68.0442 65.3554 67.2988 65.59 66.3085C64.3078 67.4813 64.0316 66.3242 62.4054 66.6369C60.3987 67.1425 61.2014 67.1633 59.3667 67.0904C57.5425 68.0025 57.3913 67.179 55.8485 67.6845C54.6915 67.7054 54.2901 68.0702 52.4972 68.2735C51.1264 68.5133 50.6469 68.3048 49.7921 68.7843C47.629 68.9354 47.4414 68.5497 45.9195 69.2377C44.8197 68.9563 43.8086 69.1856 43.0997 69.3159C43.0163 70.0196 43.7147 71.7343 43.2248 72.4432C43.9441 73.8348 43.2352 74.9242 43.647 75.2838C44.236 76.5034 44.262 77.3478 43.8555 78.3225C44.6008 79.6828 44.1734 80.5063 44.2464 82.2785C44.9448 82.5964 45.44 84.306 44.7467 85.0878C45.0647 86.1615 45.0491 87.3863 45.1585 88.0639C45.2575 88.3558 45.3305 88.705 45.3878 89.0698C46.5241 89.1115 47.186 89.1689 47.874 88.9656C49.4064 89.9611 50.1621 90.008 51.4912 89.7057C52.3304 89.9663 53.3259 89.7318 54.483 89.9767C55.7964 89.6223 56.5835 90.1175 57.5477 90.2478C58.9967 89.8569 59.2833 89.4399 60.9251 89.6901C61.7435 89.4347 62.8745 88.8926 64.042 88.7571C64.2713 88.7727 64.6153 88.731 65.0427 88.5799C64.9906 88.4183 64.9385 88.2567 64.8707 88.0847C64.7144 86.9485 65.2929 86.4794 65.3398 84.8845L65.3502 84.8793Z" fill="white"/>
<path d="M85.3693 51.6055C83.936 51.8504 82.8467 50.7298 82.3359 50.6099C80.9234 50.1356 80.4908 49.8802 79.1252 49.1089C77.843 48.4052 77.0612 48.5616 76.6494 48.0612C75.6956 47.0918 74.7053 46.6904 73.7984 45.8565C73.1417 46.0233 72.0107 44.9131 71.281 44.4492C71.5155 45.4291 71.1663 45.8565 70.6972 47.0396C69.8841 49.161 70.2125 49.0098 70.103 50.2242C69.7434 52.4863 69.4567 51.8139 68.8886 53.7893C68.7114 55.7126 68.5185 55.5614 68.3882 57.099C67.9869 58.6105 67.3979 58.5897 67.1269 59.8458C67.1165 61.5502 66.7152 61.9411 66.6474 63.119C66.1314 64.6149 66.4389 65.5896 65.8291 66.2046C66.6474 66.4965 67.867 66.4965 68.8156 65.9336C69.5766 66.4704 70.619 66.1577 71.9794 66.2515C72.8342 66.5955 73.8558 66.5955 74.6741 66.4704C76.4827 66.9082 76.8058 66.9082 78.4007 66.5799C79.2503 66.9082 80.5429 66.559 81.5071 66.6841C82.633 66.4391 83.6962 67.5962 84.4676 67.0437C85.5309 67.1219 86.3336 67.1115 87.4177 67.1428C87.8816 67.1167 88.2829 67.1219 88.6634 67.1428C88.7989 66.7571 88.8771 66.288 88.7885 65.7094C89.81 65.0423 90.0498 63.9425 90.0342 62.6968C90.2843 61.717 90.4042 60.9456 90.2009 59.4497C91.0818 58.1362 91.0505 57.443 91.3163 56.5257C91.2434 56.1035 91.2382 55.452 91.2434 54.8213C90.2948 54.5294 89.0386 54.0708 88.0275 53.633C87.0424 53.2942 85.7081 52.5488 85.3797 51.6055H85.3693Z" fill="white"/>
<path d="M63.0618 19.4833C62.4051 20.5726 62.1132 21.6099 61.3262 22.7982C61.2845 23.2517 60.2472 23.5592 59.7938 25.201C59.0485 26.0662 58.0477 26.5509 57.5317 27.3015C57.1252 28.9016 56.4945 29.0006 55.4208 29.8242C54.9153 30.6425 54.1908 31.5911 53.7217 32.0028C54.4983 31.8881 55.0664 32.5814 56.0776 34.0824C56.7864 34.6766 57.5005 34.8278 58.3917 36.0057C59.7677 36.3966 60.216 36.6729 60.758 37.4547C62.4728 38.273 62.1601 38.2521 63.9739 38.8515C65.1623 40.0607 64.9225 39.5291 66.3558 40.9676C67.6015 41.5097 67.2054 41.5931 68.6909 42.5261C69.9053 42.8701 71.0311 42.9587 71.1771 44.0324C71.5888 43.162 71.8129 42.2967 72.4644 41.7912C72.9387 40.5924 73.585 40.2536 74.0906 39.0235C74.6223 37.929 75.034 36.9178 76.1181 35.7764C76.1286 34.932 76.8478 34.218 77.343 33.04C77.5619 32.3051 77.8069 30.8926 78.9431 30.6685C79.1255 29.1831 80.293 28.6358 80.3869 27.3588C80.4286 27.2702 80.4755 27.1868 80.5224 27.1034C80.4442 27.0044 80.3608 26.9002 80.2826 26.7855C79.5373 25.9672 79.2454 25.2896 77.6922 25.1489C76.9208 24.2785 76.6863 23.6999 75.206 23.1631C75.0549 22.5011 73.9238 21.8653 72.9335 21.0939C71.6149 21.0834 71.1249 19.7231 70.3692 19.4208C69.0453 19.4573 68.1019 18.9934 66.6946 18.738C66.2985 17.9822 65.5063 17.9405 64.5577 17.7998C64.0834 18.2637 63.3954 18.9413 63.0618 19.4833Z" fill="white"/>
<path d="M42.0261 18.3623C43.1884 18.5186 43.6315 18.1746 45.2159 18.0548C45.7684 17.3355 46.5086 17.1166 47.9732 16.9759C48.9895 16.8925 49.9798 16.5068 50.8815 16.4129C52.294 16.3817 53.4824 16.4546 54.6134 16.0012C55.2858 15.9908 56.8337 16.5589 57.1673 16.1159C59.0072 16.9446 59.6691 16.8456 60.967 17.2C61.483 17.0749 63.1613 17.0853 63.9274 17.6847C64.1411 17.7316 64.3548 17.7681 64.5529 17.7994C64.7926 17.5648 64.9803 17.3824 65.0428 17.3042C65.4754 15.6832 65.9393 15.0786 66.1217 13.6088C67.3257 12.8218 67.2528 12.113 68.1753 11.1435C68.4776 9.48605 68.7539 8.79284 68.8998 7.43769C69.1917 5.86884 68.7434 5.01405 67.9512 4.35733C67.7375 2.62169 66.6429 1.99103 65.7256 1.92848C65.194 1.53757 64.8083 0.338787 63.0831 0.886059C62.5567 0.0364848 61.6967 0.495151 60.4614 0C59.6587 0.0677575 58.1628 0.265818 57.4853 0.71406C56.5784 1.05285 55.0981 1.98582 54.53 2.87709C53.5605 4.30521 53.2739 4.83163 51.9135 5.61345C51.2047 6.84872 50.2196 7.24484 49.714 8.32375C48.5465 8.91793 47.7386 8.37587 46.7796 7.96411C46.5972 7.37514 45.3984 6.64544 44.9345 6.20763C43.9286 4.84205 43.2666 5.07139 42.2607 4.51369C41.5466 3.94557 40.9629 3.77357 39.6234 3.52339C38.8937 2.90315 38.091 2.46533 37.1215 2.68945C35.5214 2.37151 34.8438 2.4966 33.791 3.33575C32.3316 3.33575 31.9303 4.42508 31.2318 4.39381C30.4083 5.55611 30.1165 6.7132 29.8506 8.15175C28.9281 9.54338 28.7509 10.0385 29.418 10.836C30.2937 11.9253 30.0435 13.0876 31.1693 14.0988C31.4038 14.7607 32.4828 16.2149 33.6607 16.1471C33.8327 17.3511 34.9794 18.2789 35.7925 18.8835C36.4231 19.4047 37.1945 19.9624 37.8721 20.4523C38.2109 20.2491 38.6174 19.9989 39.1282 19.6601C39.7745 19.1962 41.0098 18.8626 42.0209 18.3571L42.0261 18.3623Z" fill="#FF0000"/>
<path d="M103.321 46.2265C103.211 46.0545 102.742 44.9444 102.299 43.7299C102.002 42.625 101.101 42.2288 99.933 40.7538C98.8333 40.0919 98.2651 40.3525 97.3791 39.6801C96.2064 38.2416 95.3411 37.9549 93.9495 37.4702C93.3918 36.3444 93.4387 35.255 94.1215 34.0979C94.4603 33.5194 95.8259 32.5708 96.0604 32.3415C96.4253 30.9186 97.1393 30.5641 97.1862 29.0787C98.1557 28.5001 97.2383 27.8017 97.869 26.9365C97.8534 25.5709 98.0619 24.9038 98.2703 23.4183C98.015 22.9128 97.5302 21.3908 97.2123 20.2754C96.5243 19.6448 95.4558 18.5398 95.2265 17.9404C94.0016 17.2941 92.5058 17.07 91.9481 17.1065C89.9831 16.6217 89.0084 17.2941 88.3309 17.5078C87.8826 18.3 86.418 19.2174 85.7821 19.6448C85.36 20.8435 83.8536 21.5993 83.9944 22.2873C83.2959 22.9857 82.1858 24.221 82.3421 24.5181C81.7375 25.8472 81.013 26.2798 80.5283 27.0929C81.3883 28.1561 82.0398 28.2552 82.6184 29.209C83.5357 30.2201 83.838 30.9863 84.9013 31.9923C85.3339 33.092 85.6153 33.6966 86.3086 34.8224C86.2773 35.328 87.0435 36.7353 88.039 37.2304C88.6175 38.5387 89.0345 39.9199 88.7843 40.3316C89.1022 41.5513 89.2117 42.5416 90.1342 43.5371C90.2958 44.5378 90.5668 45.2779 91.161 46.5966C91.3278 47.5869 90.8275 48.6345 91.505 50.0991C91.4685 50.834 91.161 51.8504 91.1923 53.2785C91.2496 53.6225 91.2444 54.2063 91.2444 54.8057C91.2705 54.8161 91.2965 54.8213 91.3226 54.8317C91.9011 54.691 92.8967 55.8168 94.7678 55.6813C95.1535 55.7803 96.9204 55.9315 97.8899 55.7074C99.4274 55.1601 100.345 55.2174 101.617 54.1281C101.809 54.0812 102.654 53.5548 102.539 52.0485C103.42 51.2719 103.456 50.4379 103.78 49.5362C104.223 48.6919 103.962 47.2638 103.326 46.2161L103.321 46.2265Z" fill="#FF0000"/>
<path d="M86.5367 72.0475C86.0051 72.4228 85.0357 73.8144 84.2174 73.9968C83.9724 74.9715 83.0446 76.5038 83.1228 76.9C81.5852 78.1874 80.9441 78.3906 80.1206 79.1985C80.1884 80.4129 79.2241 81.0332 78.0149 81.6847C77.1393 82.2424 75.8363 82.3883 75.4193 82.9617C74.5228 83.7956 74.1632 84.9318 73.0061 85.3644C72.1617 85.5 70.718 85.6563 69.7433 86.7717C69.0709 86.6466 67.9608 87.7724 66.8558 87.4858C66.1834 88.0643 65.5632 88.4031 65.0576 88.5855C65.4485 89.8052 65.5059 90.6964 66.0531 92.2132C65.73 92.6823 65.8186 94.2355 66.7046 95.0173C67.3353 96.2838 68.2005 96.9353 69.785 97.4305C70.1029 98.1237 71.0411 98.3791 72.0054 98.5459C72.98 98.8586 73.9755 98.0299 74.9711 97.9309C75.5705 97.3158 76.8214 96.534 77.4729 96.435C77.9732 95.4134 79.1407 95.2622 79.6672 93.6569C80.3708 92.8386 80.8295 91.8118 81.1057 91.1134C80.8555 89.899 80.9754 88.0226 81.4862 87.0323C82.07 86.115 81.7208 84.9162 82.6381 83.7747C82.6016 82.3988 83.4251 82.8678 85.0148 82.3049C85.1451 82.8887 86.5472 83.0503 87.6209 83.1232C88.5226 83.2796 89.7005 83.6236 90.6699 83.4724C91.0244 82.8678 91.8844 83.5506 93.5627 82.8418C93.5731 82.4144 95.0169 82.4144 95.2775 81.5544C97.06 81.0749 97.8105 79.6989 98.6862 79.5321C99.0562 77.9215 99.3168 76.9156 99.5983 76.3736C99.6713 75.3103 99.8328 73.9134 98.8947 73.1785C98.7331 71.7765 97.6646 70.3119 97.6698 69.5561C96.7368 69.1339 95.0168 69.1756 93.9275 68.3573C93.5627 68.1749 91.801 67.4765 91.3058 67.4869C90.2321 67.3462 89.5024 67.2054 88.6737 67.1533C88.4444 67.81 88.0587 68.2374 88.0326 68.6179C87.2873 69.6603 86.8078 70.7549 86.542 72.0631L86.5367 72.0475Z" fill="#FF0000"/>
<path d="M41.4734 87.7095C40.9939 86.8756 39.6231 86.7297 38.8361 86.5681C38.0334 86.3335 36.4958 85.7133 36.0059 84.6865C34.9843 84.6657 33.8689 84.379 32.8473 83.4981C32.0186 82.5912 31.4192 82.1847 30.4237 80.9807C29.6523 80.2197 29.4751 80.1415 28.1564 79.12C27.3016 78.4997 26.5772 77.9264 25.7953 76.6025C25.665 76.1491 24.2786 75.3829 24.2473 74.5125C23.7783 73.2563 22.8713 72.1149 22.4283 71.8491C22.4127 71.7969 22.397 71.75 22.3814 71.7031C21.9436 71.7865 21.511 71.8699 21.0158 72.0002C20.1923 72.928 18.9831 72.6048 17.8208 73.3866C16.8044 73.8036 15.5744 74.6688 14.9125 75.1431C13.4739 76.3054 13.4948 77.3791 12.3481 78.1609C12.2595 79.2972 12.1657 80.3135 12.5305 81.0015C12.3846 81.9241 12.7755 83.1437 13.6094 83.5503C13.9847 85.166 14.4486 85.5673 15.319 85.9895C15.9445 87.1362 16.6689 87.3343 18.1857 87.7043C19.1551 88.2568 19.9943 88.2151 21.6309 88.4601C22.3449 88.236 23.8147 88.8562 24.878 88.6269C26.3739 88.8197 26.9472 88.8927 28.4118 88.7728C29.9755 89.3878 29.6523 90.0393 30.3612 91.0713C30.283 91.6343 29.7722 93.005 30.5071 93.4846C30.4237 94.8814 29.9702 95.241 30.2621 96.3095C30.9032 97.4979 30.9866 98.0921 31.8101 99.5515C31.6016 99.5932 32.5033 100.615 33.5249 101.73C34.1764 101.996 35.1042 102.945 35.3908 103.851C36.4854 104.107 38.1845 104.294 38.9038 104.727C40.0922 104.618 40.9209 104.018 42.1093 103.101C43.6625 102.965 44.4964 101.595 44.83 101.183C45.2886 100.255 45.0697 99.343 45.7786 98.2276C45.3825 97.1382 46.378 96.0176 46.0288 94.9335C45.8776 93.9484 46.0131 92.5829 45.6483 91.3632C45.5753 90.941 45.5388 89.9716 45.3981 89.0907C45.101 89.0803 44.7726 89.0699 44.3974 89.0647C43.4905 88.1161 43.11 88.2985 41.4682 87.7252L41.4734 87.7095Z" fill="#FF0000"/>
<path d="M17.7116 56.3847C17.1383 55.2745 17.3832 53.8776 17.722 53.4242C17.5135 52.5016 17.4145 50.6826 17.6073 49.536C17.2946 49.2806 18.3579 47.8837 18.2172 46.6901C18.8478 45.9187 18.4986 44.1675 18.6758 44.0059C18.8843 42.2598 19.1606 41.3738 19.3742 40.4617C20.3281 39.2525 20.7398 39.0023 20.719 37.4855C21.8917 36.6568 21.6728 35.5206 22.0637 35.1505C22.7413 33.5348 23.4449 33.3993 24.6489 32.435C25.2014 31.2675 25.5506 29.8967 26.2125 29.3442C26.2595 29.2608 26.3064 29.1774 26.3533 29.0993C25.9259 28.5051 25.1545 27.9526 24.2528 27.9526C23.3824 26.4776 23.0488 25.9564 21.2089 25.456C20.7346 25.3726 20.0466 25.8365 18.6446 25.998C17.4301 27.004 17.1487 27.3428 15.7623 27.6816C15.7101 28.5155 14.7407 28.5416 14.4957 30.001C13.5836 30.2303 13.4064 31.4499 13.3073 32.8728C12.8904 34.2697 13.4481 35.1557 12.9686 36.563C13.4064 37.7722 13.2709 38.7104 14.1204 39.4453C14.256 40.6232 13.8286 42.3485 13.7973 43.2137C14.5113 44.5949 13.0937 44.8659 12.4265 45.2412C11.1704 45.335 10.3834 44.8763 8.89269 45.2672C8.0379 45.507 7.40724 45.7311 6.45863 46.1324C5.95827 47.1019 5.04615 46.8309 4.17051 47.769C3.59197 48.2329 3.22191 49.489 2.16385 49.6246C1.00155 50.8442 0.761792 51.7459 0.297914 53.2261C-0.0982062 54.3624 -0.0825698 54.9774 0.245793 55.8218C1.07452 57.6929 0.652338 58.5269 1.48628 59.5224C2.38797 60.5283 3.66494 61.2424 4.39985 61.3101C5.20251 61.2267 6.33354 61.1329 8.0796 61.2424C9.13245 61.3727 10.5658 61.6437 11.0557 61.8053C12.1711 61.1694 13.3282 60.8619 13.8546 60.9713C15.1472 60.3355 16.3356 60.3094 16.8672 60.1218C17.3363 59.9185 17.7324 59.8038 18.0869 59.7256C18.0243 59.538 17.967 59.3504 17.9044 59.1732C18.0295 58.8187 17.9357 57.7085 17.7116 56.3899V56.3847Z" fill="#FF0000"/>
<path d="M33.0196 55.6442C31.6384 55.5869 30.8983 55.4931 29.809 56.5824C28.7092 56.1133 27.5886 57.0515 26.9475 57.4789C25.6393 57.8698 24.7897 57.7864 23.6326 57.8072C22.0846 58.292 21.2767 58.5734 20.4532 59.2406C19.6245 59.5846 18.999 59.5116 18.0869 59.7149C18.3788 60.6114 18.6707 61.586 19.1554 62.2688C19.0042 63.405 19.244 64.8071 20.0571 65.8495C20.349 66.892 20.7816 67.3767 20.891 68.3044C21.0995 69.8212 22.0064 70.5769 22.3817 71.6871C22.8612 71.5933 23.3355 71.4995 23.888 71.3379C25.3578 70.9261 26.1448 70.8532 27.6876 70.7333C28.2922 70.4101 29.9705 70.7854 30.2572 70.3424C31.2788 70.5404 32.8945 69.8055 34.0464 69.6648C34.4946 69.9775 35.9957 70.0922 36.7671 69.9932C38.4454 69.6439 38.9354 69.5762 40.1185 69.3729C40.6449 69.0654 41.9532 69.0498 42.662 69.0654C42.6725 68.6015 42.4431 67.7676 41.8125 66.845C40.8951 64.5674 40.843 65.099 39.7797 63.8324C39.7224 62.175 38.9875 62.3731 38.435 60.8824C38.1275 58.6255 37.8721 58.5838 36.7619 57.2704C35.6048 53.5437 35.5579 54.2891 33.0248 55.639L33.0196 55.6442Z" fill="white"/>
<path d="M51.0479 30.2359C49.9533 29.4593 49.3174 28.9798 48.0248 28.2397C47.7173 28.2136 46.628 27.1504 46.4091 25.9672C45.2833 25.691 44.491 24.8675 43.2922 24.6642C42.6199 24.1378 41.3377 23.0328 41.2908 22.5324C39.7428 22.2666 38.9505 21.1199 38.617 21.0001C38.3929 20.8333 38.1427 20.6509 37.8769 20.458C37.1055 20.9115 36.6676 21.0939 36.0995 21.3128C35.3646 21.5578 33.8323 22.4021 33.0817 23.0641C32.5813 23.455 31.5806 24.0179 30.9916 24.8883C29.7095 26.1444 29.3238 26.7438 28.125 26.8689C27.7706 27.4683 26.9106 28.1824 26.3477 29.0945C26.6187 29.4698 26.7542 29.8607 26.6969 30.1421C27.5517 31.1585 27.8904 32.4563 28.3856 33.113C29.0788 34.0199 29.7095 35.5627 30.1473 36.0683C30.8509 37.2254 30.8405 38.5336 31.32 39.4405C31.9976 40.5768 31.7735 41.4472 32.7742 42.3541C32.67 43.2975 33.3684 44.1002 33.5039 45.1582C33.6863 45.9505 34.1919 47.5245 34.2284 48.0092C34.2388 49.4791 34.8017 50.558 35.0779 51.689C35.5106 52.1424 35.4689 52.9034 35.521 53.852C35.8441 52.6063 36.8084 52.7262 37.4078 52.1268C38.7421 50.5215 38.7681 50.7248 39.4561 49.698C40.4099 47.9728 40.7279 48.0666 41.4419 46.7166C42.2759 45.4762 42.0205 45.5387 43.3079 44.6057C44.4493 43.0056 44.7725 43.3652 45.7628 42.401C46.2058 40.7279 46.3622 40.6862 47.8633 39.2373C48.9005 38.4085 48.6138 38.2365 49.7709 36.7042C50.6413 35.9588 50.5996 35.9484 51.9079 34.6662C52.919 33.6916 52.059 32.2478 53.5862 32.2113C53.164 31.6171 52.2258 31.0021 51.0531 30.2411L51.0479 30.2359Z" fill="white"/>
</svg>
