<svg width="184" height="51" viewBox="0 0 184 51" fill="none" xmlns="http://www.w3.org/2000/svg">
<path d="M61.5847 18.463H62.8503V20.3534H59.4717V15.5586H61.5847V18.4646V18.463Z" fill="#002F71"/>
<path d="M67.8399 17.9553C67.8399 19.7031 67.0774 20.4897 65.3872 20.4897C63.6971 20.4897 62.9346 19.7015 62.9346 17.9553C62.9346 16.2091 63.6987 15.4209 65.3889 15.4209C67.079 15.4209 67.8415 16.2091 67.8415 17.9553H67.8399ZM65.1405 17.9553C65.1405 18.5176 65.203 18.7018 65.3889 18.7018C65.5747 18.7018 65.6372 18.516 65.6372 17.9553C65.6372 17.3946 65.5747 17.2087 65.3889 17.2087C65.203 17.2087 65.1405 17.3946 65.1405 17.9553Z" fill="#002F71"/>
<path d="M71.8826 20.3534H68.5488L67.791 15.5586H70.0002L70.1524 18.6152H70.311L70.4632 15.5586H72.6387L71.8809 20.355L71.8826 20.3534Z" fill="#002F71"/>
<path d="M76.5396 17.0853H74.9343V17.449H76.4258V18.463H74.9343V18.8267H76.5396V20.355H72.8213V15.5586H76.5396V17.0869V17.0853Z" fill="#002F71"/>
<path d="M81.4624 17.449H80.6598V20.3534H78.5467V17.449H77.7441V15.5586H81.4624V17.4506V17.449Z" fill="#002F71"/>
<path d="M86.3791 20.3534H84.266V18.8315H83.8367V20.3534H81.7236V15.5586H83.8367V17.0805H84.266V15.5586H86.3791V20.355V20.3534Z" fill="#002F71"/>
<path d="M90.5151 17.0853H88.9099V17.449H90.4014V18.463H88.9099V18.8267H90.5151V20.355H86.7969V15.5586H90.5151V17.0869V17.0853Z" fill="#002F71"/>
<path d="M98.5012 20.3531H95.6144L95.4622 17.4342H95.3613L95.2091 20.3531H92.2774L91.6494 15.5566H93.8025L93.9547 18.6133H94.1133L94.2655 15.5566H96.5532L96.7054 18.6133H96.864L97.0161 15.5566H99.1292L98.5012 20.3531Z" fill="#002F71"/>
<path d="M103.99 17.9553C103.99 19.7031 103.228 20.4897 101.538 20.4897C99.8475 20.4897 99.085 19.7015 99.085 17.9553C99.085 16.2091 99.8475 15.4209 101.538 15.4209C103.228 15.4209 103.99 16.2091 103.99 17.9553ZM101.289 17.9553C101.289 18.5176 101.352 18.7018 101.538 18.7018C101.723 18.7018 101.786 18.516 101.786 17.9553C101.786 17.3946 101.723 17.2087 101.538 17.2087C101.352 17.2087 101.289 17.3946 101.289 17.9553Z" fill="#002F71"/>
<path d="M107.082 15.5586C108.484 15.5586 108.992 16.0248 108.992 17.3064C108.992 17.992 108.845 18.3893 108.5 18.6489L109.11 20.355H106.872L106.562 19.0942H106.376V20.355H104.268V15.5586H107.081H107.082ZM106.376 16.805V17.8463H106.466C106.747 17.8463 106.85 17.7085 106.85 17.3256C106.85 16.9427 106.749 16.805 106.466 16.805H106.376Z" fill="#002F71"/>
<path d="M111.411 18.463H112.676V20.3534H109.298V15.5586H111.411V18.4646V18.463Z" fill="#002F71"/>
<path d="M115.209 15.5586C117.079 15.5586 117.729 16.1754 117.729 17.9568C117.729 19.7382 117.079 20.355 115.209 20.355H112.938V15.5586H115.209ZM115.051 17.2087V18.7017H115.14C115.44 18.7017 115.525 18.5367 115.525 17.9552C115.525 17.3737 115.44 17.2087 115.14 17.2087H115.051Z" fill="#002F71"/>
<path d="M69.8259 22.0514L69.6225 28.0606C68.5395 27.9372 67.4069 27.8555 66.6459 27.8555C64.9878 27.8555 64.3631 28.2448 64.3631 29.3325C64.3631 30.2553 64.786 30.6862 65.7328 30.6862V29.1884H69.9781V36.1619C68.6596 36.5929 67.221 36.7979 65.5646 36.7979C60.0504 36.7995 57.7676 34.5631 57.7676 29.2108C57.7676 23.8585 60.0841 21.6221 65.6991 21.6221C67.0176 21.6221 68.2864 21.7454 69.8259 22.053V22.0514Z" fill="#002F71"/>
<path d="M76.9319 34.3369L76.7797 36.3875H70.2852L72.4671 22.0303H83.1733L85.3553 36.3875H78.7598L78.6076 34.3369H76.9335H76.9319ZM78.0485 26.6248H77.4894L77.2187 30.4601H78.3353L78.0485 26.6248Z" fill="#002F71"/>
<path d="M105.384 36.3894H99.6165V28.719H99.1423L98.2131 36.3894H92.9697L92.0389 28.719H91.5647V36.3894H85.8984V22.0322H94.7271L95.1837 29.2317H95.6579L96.1145 22.0322H105.382V36.3894H105.384Z" fill="#002F71"/>
<path d="M117.769 26.606H112.966V27.6937H117.431V30.7295H112.966V31.8157H117.769V36.3894H106.64V22.0322H117.769V26.606Z" fill="#002F71"/>
<path d="M126.949 18.4627H128.215V20.3531H124.836V15.5566H126.949V18.4627Z" fill="#CE242B"/>
<path d="M133.205 17.9553C133.205 19.7031 132.443 20.4897 130.752 20.4897C129.062 20.4897 128.3 19.7015 128.3 17.9553C128.3 16.2091 129.062 15.4209 130.752 15.4209C132.443 15.4209 133.205 16.2091 133.205 17.9553ZM130.506 17.9553C130.506 18.5176 130.568 18.7018 130.754 18.7018C130.94 18.7018 131.002 18.516 131.002 17.9553C131.002 17.3946 130.94 17.2087 130.754 17.2087C130.568 17.2087 130.506 17.3946 130.506 17.9553Z" fill="#CE242B"/>
<path d="M137.247 20.3531H133.913L133.155 15.5566H135.364L135.517 18.6133H135.675L135.827 15.5566H138.003L137.245 20.3531H137.247Z" fill="#CE242B"/>
<path d="M141.904 17.0853H140.299V17.449H141.79V18.463H140.299V18.8267H141.904V20.355H138.186V15.5586H141.904V17.0869V17.0853Z" fill="#CE242B"/>
<path d="M146.827 17.4486H146.024V20.3531H143.911V17.4486H143.108V15.5566H146.827V17.4486Z" fill="#CE242B"/>
<path d="M151.743 20.3531H149.63V18.8312H149.201V20.3531H147.088V15.5566H149.201V17.0786H149.63V15.5566H151.743V20.3531Z" fill="#CE242B"/>
<path d="M155.879 17.0853H154.274V17.449H155.766V18.463H154.274V18.8267H155.879V20.355H152.161V15.5586H155.879V17.0869V17.0853Z" fill="#CE242B"/>
<path d="M163.865 20.3531H160.979L160.826 17.4342H160.726L160.573 20.3531H157.642L157.014 15.5566H159.167L159.319 18.6133H159.478L159.63 15.5566H161.917L162.07 18.6133H162.228L162.38 15.5566H164.493L163.865 20.3531Z" fill="#CE242B"/>
<path d="M169.355 17.9553C169.355 19.7031 168.592 20.4897 166.902 20.4897C165.212 20.4897 164.449 19.7015 164.449 17.9553C164.449 16.2091 165.212 15.4209 166.902 15.4209C168.592 15.4209 169.355 16.2091 169.355 17.9553ZM166.654 17.9553C166.654 18.5176 166.716 18.7018 166.902 18.7018C167.088 18.7018 167.15 18.516 167.15 17.9553C167.15 17.3946 167.088 17.2087 166.902 17.2087C166.716 17.2087 166.654 17.3946 166.654 17.9553Z" fill="#CE242B"/>
<path d="M172.447 15.5566C173.848 15.5566 174.356 16.0228 174.356 17.3044C174.356 17.9901 174.209 18.3874 173.864 18.6469L174.475 20.3531H172.237L171.926 19.0923H171.74V20.3531H169.632V15.5566H172.445H172.447ZM171.74 16.8046V17.8459H171.83C172.112 17.8459 172.214 17.7081 172.214 17.3253C172.214 16.9424 172.113 16.8046 171.83 16.8046H171.74Z" fill="#CE242B"/>
<path d="M176.775 18.4627H178.041V20.3531H174.662V15.5566H176.775V18.4627Z" fill="#CE242B"/>
<path d="M180.573 15.5566C182.443 15.5566 183.093 16.1734 183.093 17.9549C183.093 19.7363 182.443 20.3531 180.573 20.3531H178.302V15.5566H180.573ZM180.415 17.2083V18.7014H180.505C180.804 18.7014 180.889 18.5364 180.889 17.9549C180.889 17.3733 180.804 17.2083 180.505 17.2083H180.415Z" fill="#CE242B"/>
<path d="M143.172 35.55H137.749V28.3394H137.304L136.429 35.55H131.5L130.625 28.3394H130.18V35.55H124.852V22.0547H133.153L133.583 28.8216H134.028L134.457 22.0547H143.172V35.55Z" fill="#CE242B"/>
<path d="M166.452 22.0547C170.396 22.0547 171.828 23.3667 171.828 26.9713C171.828 28.8985 171.415 30.0167 170.444 30.7504L172.161 35.55H165.864L164.989 32.0032H164.463V35.55H158.531V22.0547H166.452ZM164.465 25.5647V28.4948H164.72C165.514 28.4948 165.801 28.1087 165.801 27.0289C165.801 25.9492 165.514 25.5631 164.72 25.5631H164.465V25.5647Z" fill="#CE242B"/>
<path d="M183.149 26.3545H178.633V27.375H182.832V30.2281H178.633V31.2502H183.149V35.55H172.685V22.0547H183.149V26.3545Z" fill="#CE242B"/>
<path d="M150.853 21.6699C146.098 21.6699 143.951 23.8871 143.951 28.8037C143.951 33.7202 146.098 35.9374 150.853 35.9374C155.607 35.9374 157.754 33.7202 157.754 28.8037C157.754 23.8871 155.607 21.6699 150.853 21.6699ZM153.626 28.1709C153.579 28.3535 153.528 28.4432 153.454 28.6643C153.309 28.778 153.305 28.8774 153.124 28.9623C153.071 29.1609 152.996 29.233 152.905 29.4477C152.895 29.4573 152.866 29.4781 152.828 29.507C152.754 29.5614 152.647 29.6415 152.589 29.7088C152.479 29.845 152.418 29.9828 152.286 30.1301C152.272 30.191 152.123 30.2134 152.03 30.4297C151.912 30.5338 151.764 30.5819 151.679 30.6732C151.593 30.8847 151.505 30.8863 151.341 30.9776C151.256 31.0801 151.112 31.2163 151.04 31.2644C150.992 31.1763 150.878 31.0753 150.734 30.9504C150.6 30.8222 150.521 30.7437 150.359 30.6172C150.318 30.6075 150.189 30.4409 150.181 30.2743C150.032 30.215 149.939 30.0869 149.779 30.0356C149.698 29.9507 149.544 29.7745 149.547 29.704C149.34 29.6383 149.254 29.4653 149.211 29.4413C149.183 29.414 149.151 29.3836 149.119 29.3532C149.036 29.2731 148.941 29.1817 148.865 29.0984C148.765 29.0007 148.626 28.8501 148.626 28.6819C148.464 28.6691 148.344 28.448 148.325 28.3535C148.19 28.1933 148.246 28.0395 148.148 27.8729C148.073 27.7512 148.107 27.6871 148.261 27.5141C148.325 27.3218 148.387 27.1696 148.523 27.0254C148.619 27.0431 148.695 26.9021 148.895 26.9309C149.055 26.8364 149.151 26.8332 149.364 26.9069C149.502 26.8957 149.603 26.971 149.691 27.0703C149.871 27.1312 149.947 27.1648 150.034 27.2577C150.161 27.3539 150.257 27.3346 150.367 27.5413C150.422 27.6102 150.572 27.7335 150.585 27.8184C150.708 27.8937 150.808 27.9834 150.979 27.9258C151.069 27.788 151.211 27.7528 151.333 27.5974C151.535 27.5173 151.585 27.45 151.745 27.2738C151.839 27.1632 152.061 27.0639 152.192 27.0351C152.293 26.987 152.501 26.9886 152.613 26.995C152.773 27.0863 152.9 27.0399 152.956 27.168C153.203 27.1264 153.232 27.2994 153.297 27.3619C153.422 27.3875 153.56 27.4964 153.555 27.7383C153.651 27.8441 153.696 27.9706 153.626 28.1789V28.1709Z" fill="#CE242B"/>
<path d="M31.8382 41.3378C31.465 41.1152 31.63 40.3991 31.6764 39.9857C31.348 39.518 31.5563 39.0309 31.324 38.3277C31.2006 37.9977 31.5419 37.453 31.4153 36.8234C31.5034 36.3972 31.364 35.6491 31.6428 35.2694C31.449 34.6623 31.6716 34.0855 31.8334 33.5473C31.63 33.1323 31.8398 32.7703 31.9552 32.2881C31.332 32.8584 31.1958 32.2945 30.4044 32.4499C29.4272 32.6966 29.8181 32.7078 28.9242 32.671C28.0351 33.1163 27.9614 32.7142 27.2116 32.9593C26.6477 32.9689 26.4523 33.1484 25.5792 33.2477C24.9127 33.3646 24.6789 33.2621 24.2623 33.496C23.2082 33.5713 23.1169 33.3807 22.3752 33.7187C21.8401 33.5825 21.3451 33.693 21.0006 33.7571C20.959 34.1 21.3002 34.9346 21.0615 35.2822C21.4108 35.9599 21.0663 36.4902 21.2682 36.6648C21.5549 37.2575 21.5678 37.6692 21.3707 38.1434C21.7328 38.8067 21.5261 39.2072 21.5613 40.0707C21.9026 40.226 22.1429 41.0591 21.8048 41.4388C21.9602 41.9626 21.9506 42.5586 22.0067 42.8886C22.0564 43.0296 22.0916 43.201 22.1188 43.3788C22.6715 43.3996 22.9935 43.4285 23.33 43.3291C24.0765 43.8145 24.445 43.837 25.0922 43.688C25.5007 43.8145 25.9877 43.7008 26.5484 43.8194C27.1876 43.6479 27.5705 43.8882 28.0399 43.9507C28.7464 43.7601 28.8857 43.5566 29.6851 43.68C30.084 43.555 30.6351 43.2907 31.2038 43.225C31.316 43.233 31.4842 43.2122 31.6909 43.1369C31.6668 43.06 31.6396 42.9799 31.6076 42.895C31.5307 42.3407 31.8142 42.1148 31.8366 41.3346L31.8382 41.3378Z" fill="#002F71"/>
<path d="M41.5879 25.1307C40.8894 25.2509 40.3607 24.7046 40.1108 24.6453C39.4235 24.4147 39.2121 24.2897 38.5472 23.9148C37.9209 23.572 37.5412 23.6489 37.3409 23.4038C36.8779 22.9312 36.3957 22.7357 35.952 22.3304C35.6332 22.4105 35.0821 21.8707 34.7264 21.6448C34.8418 22.1206 34.672 22.3304 34.4429 22.9056C34.0456 23.9389 34.2058 23.8668 34.1529 24.4547C33.9767 25.5569 33.8373 25.2285 33.5618 26.1929C33.4769 27.1301 33.3808 27.0564 33.3183 27.8061C33.1212 28.5414 32.8361 28.5334 32.7031 29.1438C32.6967 29.9752 32.5013 30.1659 32.4692 30.7378C32.2193 31.4651 32.3683 31.9425 32.0703 32.2389C32.4692 32.3814 33.0636 32.3798 33.5249 32.1059C33.895 32.367 34.4044 32.2148 35.0645 32.2597C35.4826 32.4279 35.9776 32.4279 36.3765 32.3654C37.2576 32.5785 37.4162 32.5801 38.1916 32.4183C38.6049 32.5785 39.2345 32.4087 39.7039 32.4696C40.2518 32.3494 40.7692 32.9133 41.1473 32.6458C41.6664 32.6842 42.0572 32.6794 42.5843 32.6938C42.8118 32.681 43.0072 32.6842 43.1915 32.6938C43.2572 32.5048 43.294 32.2789 43.2507 31.9954C43.7474 31.6702 43.8659 31.1367 43.8563 30.5279C43.9797 30.0521 44.0357 29.6741 43.9364 28.9467C44.3641 28.3075 44.3513 27.9695 44.4795 27.5226C44.4442 27.3175 44.4426 27.0003 44.4426 26.6927C43.9813 26.5485 43.3677 26.3259 42.8759 26.1128C42.3953 25.9494 41.7465 25.5841 41.5863 25.1259L41.5879 25.1307Z" fill="#002F71"/>
<path d="M30.7206 9.48695C30.4002 10.0156 30.2592 10.5234 29.8747 11.1018C29.8539 11.3229 29.3493 11.4734 29.1266 12.2712C28.763 12.6926 28.2759 12.9297 28.026 13.2949C27.829 14.0735 27.5198 14.1232 26.9975 14.5221C26.7508 14.9194 26.4 15.3839 26.1709 15.5826C26.549 15.5265 26.8261 15.8646 27.3195 16.5967C27.664 16.885 28.0132 16.9587 28.4474 17.5338C29.1186 17.7245 29.3365 17.8575 29.5992 18.2403C30.4338 18.6392 30.2817 18.6296 31.1644 18.9212C31.7443 19.5107 31.6273 19.2528 32.3258 19.9513C32.933 20.214 32.7391 20.2557 33.4632 20.709C34.0544 20.8756 34.6023 20.9189 34.6744 21.4428C34.8746 21.0198 34.9836 20.5985 35.3008 20.3502C35.533 19.767 35.8454 19.602 36.0921 19.0029C36.3517 18.471 36.5535 17.9776 37.079 17.4233C37.0822 17.0116 37.4346 16.664 37.6765 16.0904C37.7823 15.7332 37.904 15.0443 38.4567 14.937C38.5448 14.2145 39.1135 13.9469 39.1584 13.3254C39.1792 13.2821 39.2017 13.2405 39.2241 13.202C39.1856 13.1539 39.1472 13.1043 39.1071 13.0482C38.7435 12.6477 38.6025 12.3209 37.8447 12.2504C37.4683 11.8259 37.3545 11.5455 36.6352 11.2844C36.5599 10.9624 36.012 10.6516 35.5282 10.2767C34.8858 10.2719 34.6487 9.6087 34.2787 9.46132C33.6331 9.48054 33.1733 9.25305 32.4892 9.1281C32.297 8.76124 31.9109 8.74041 31.4479 8.66992C31.2156 8.89581 30.8808 9.22582 30.719 9.49015L30.7206 9.48695Z" fill="#002F71"/>
<path d="M20.4762 8.94082C21.0417 9.01612 21.2596 8.84951 22.0318 8.79183C22.3009 8.44099 22.6614 8.33526 23.3743 8.26637C23.8693 8.22632 24.3531 8.03729 24.7904 7.99403C25.4793 7.97801 26.0576 8.01326 26.6087 7.79378C26.9355 7.78897 27.6901 8.06612 27.8535 7.84985C28.7506 8.25356 29.0726 8.2055 29.7038 8.37691C29.9553 8.31604 30.7724 8.32084 31.1456 8.61241C31.2498 8.63644 31.3523 8.65246 31.4516 8.66848C31.5686 8.55474 31.6599 8.46663 31.6887 8.42657C31.9002 7.63678 32.126 7.34362 32.2126 6.62752C32.7989 6.24303 32.7653 5.897 33.2138 5.42761C33.3612 4.6202 33.4958 4.28217 33.5663 3.62215C33.7088 2.85799 33.4894 2.44307 33.1049 2.12106C33.0007 1.2768 32.4673 0.969216 32.0219 0.938778C31.7624 0.749741 31.575 0.165007 30.7355 0.430941C30.4808 0.0160201 30.0611 0.240302 29.4571 0C29.0662 0.0320402 28.3373 0.129763 28.0089 0.347636C27.5667 0.512643 26.8458 0.966012 26.5687 1.40176C26.0961 2.09863 25.9567 2.35496 25.2935 2.73463C24.9474 3.33539 24.4684 3.52923 24.2217 4.05629C23.653 4.34625 23.2605 4.08192 22.7943 3.88007C22.7062 3.59331 22.1199 3.23766 21.8956 3.0246C21.4054 2.35976 21.0834 2.4703 20.5932 2.19956C20.2455 1.92401 19.962 1.83911 19.3068 1.71896C18.9511 1.41618 18.5618 1.20471 18.0892 1.31205C17.3107 1.15665 16.9806 1.21913 16.468 1.62764C15.7583 1.62764 15.5629 2.15791 15.22 2.14349C14.8179 2.709 14.677 3.27451 14.5488 3.97459C14.0986 4.65224 14.0121 4.89414 14.3373 5.28023C14.7635 5.81209 14.6417 6.3776 15.1912 6.86782C15.3049 7.18982 15.832 7.89791 16.4039 7.86427C16.4888 8.45061 17.0463 8.90397 17.4436 9.19554C17.7512 9.44866 18.1261 9.721 18.4561 9.9597C18.6227 9.86198 18.8198 9.73702 19.0697 9.57522C19.3837 9.34933 19.9876 9.18593 20.4794 8.94082H20.4762Z" fill="#CE242B"/>
<path d="M50.3285 22.5135C50.2756 22.4286 50.0481 21.8871 49.8303 21.2975C49.6861 20.7593 49.2471 20.567 48.6784 19.8477C48.1418 19.5257 47.8662 19.6523 47.4337 19.3255C46.8617 18.6238 46.442 18.486 45.7628 18.2473C45.4904 17.6994 45.5129 17.1692 45.8461 16.6053C46.0111 16.3233 46.6775 15.8619 46.7897 15.7498C46.9659 15.0577 47.3151 14.8847 47.3375 14.1606C47.8101 13.8786 47.3632 13.539 47.6708 13.1177C47.6644 12.4512 47.7653 12.1276 47.8678 11.4051C47.7445 11.1584 47.5074 10.4167 47.3536 9.87361C47.0187 9.56763 46.4965 9.02935 46.3859 8.73778C45.79 8.42219 45.0611 8.31325 44.7903 8.33248C43.8339 8.09698 43.3581 8.42379 43.0265 8.52952C42.8087 8.91561 42.0958 9.36257 41.785 9.57083C41.5799 10.1556 40.8446 10.5224 40.9135 10.8588C40.5723 11.1985 40.0324 11.8008 40.1093 11.9466C39.8145 12.5938 39.4621 12.8037 39.2266 13.201C39.6447 13.72 39.9635 13.7681 40.2438 14.2327C40.6892 14.7245 40.8382 15.0994 41.3556 15.5896C41.5671 16.1263 41.7049 16.421 42.0397 16.9689C42.0253 17.2156 42.3985 17.9013 42.8824 18.1416C43.1627 18.7792 43.3662 19.452 43.246 19.6507C43.3998 20.2434 43.4527 20.7288 43.9028 21.2126C43.9813 21.6997 44.1127 22.0601 44.4027 22.7025C44.4844 23.1863 44.2393 23.6942 44.5693 24.4086C44.55 24.7659 44.4011 25.2625 44.4171 25.9562C44.4443 26.1244 44.4427 26.4064 44.4427 26.6995C44.4555 26.7027 44.4683 26.7075 44.4812 26.7123C44.7631 26.6435 45.2469 27.1929 46.1585 27.1273C46.3475 27.1769 47.2062 27.249 47.6788 27.1401C48.4269 26.8725 48.8739 26.9014 49.4938 26.3711C49.5884 26.3471 50.0001 26.0908 49.944 25.3586C50.3717 24.9822 50.3894 24.5737 50.548 24.1363C50.7642 23.7246 50.6377 23.0277 50.3285 22.5183V22.5135Z" fill="#CE242B"/>
<path d="M42.1545 35.0894C41.8966 35.272 41.424 35.9481 41.0235 36.0394C40.9049 36.5136 40.4515 37.2617 40.49 37.454C39.7419 38.0804 39.4279 38.1813 39.029 38.5738C39.0626 39.1649 38.5932 39.4677 38.0037 39.7833C37.5775 40.0557 36.9431 40.1261 36.7381 40.4033C36.3023 40.8086 36.1261 41.3613 35.5622 41.5728C35.1505 41.6384 34.4472 41.7153 33.973 42.2584C33.6462 42.1959 33.1047 42.747 32.5681 42.6044C32.2396 42.8864 31.9385 43.0514 31.6934 43.1395C31.8824 43.7339 31.9128 44.168 32.1788 44.9049C32.0218 45.1324 32.065 45.8902 32.4976 46.2714C32.8052 46.8882 33.2249 47.2054 33.9987 47.4473C34.1524 47.7838 34.6106 47.9103 35.08 47.9904C35.5542 48.1426 36.038 47.7405 36.525 47.6908C36.8166 47.3913 37.4254 47.01 37.7425 46.9619C37.9877 46.4637 38.5532 46.3916 38.8095 45.6098C39.1523 45.2109 39.375 44.7111 39.5096 44.3715C39.3862 43.7787 39.4471 42.8656 39.6938 42.3834C39.979 41.938 39.8091 41.3517 40.2545 40.7958C40.2385 40.1245 40.6374 40.3536 41.4128 40.0797C41.4768 40.3648 42.1593 40.4417 42.6815 40.477C43.1205 40.5539 43.694 40.7205 44.1666 40.6468C44.3396 40.352 44.7578 40.6868 45.5748 40.3392C45.5796 40.1309 46.2829 40.1309 46.4094 39.7112C47.2793 39.4773 47.643 38.8077 48.0691 38.726C48.2485 37.941 48.3767 37.4524 48.5129 37.1881C48.5481 36.6706 48.6266 35.9913 48.1716 35.6325C48.0931 34.9484 47.5709 34.2355 47.5741 33.8687C47.1207 33.6636 46.2813 33.6845 45.751 33.2856C45.5732 33.1974 44.7145 32.8562 44.4742 32.861C43.9519 32.7937 43.5963 32.7232 43.1926 32.6992C43.0821 33.018 42.893 33.2279 42.8818 33.4121C42.5181 33.92 42.2842 34.4534 42.1561 35.0894H42.1545Z" fill="#CE242B"/>
<path d="M20.2073 42.716C19.9734 42.3091 19.3054 42.2386 18.9241 42.1585C18.5348 42.0448 17.7835 41.7436 17.5464 41.2422C17.0482 41.2326 16.5051 41.0932 16.0085 40.6639C15.6048 40.2217 15.3148 40.0231 14.8278 39.4383C14.4513 39.0683 14.3664 39.0298 13.7224 38.5316C13.3059 38.2288 12.9518 37.9517 12.5722 37.3044C12.5081 37.0818 11.832 36.7101 11.8176 36.2872C11.5885 35.6768 11.1464 35.1193 10.9301 34.9911C10.9237 34.9671 10.9157 34.9431 10.9077 34.9207C10.6962 34.9623 10.4831 35.0024 10.2412 35.0664C9.84073 35.5166 9.25119 35.3612 8.68568 35.7409C8.19066 35.9443 7.59151 36.3657 7.2695 36.5964C6.56942 37.1619 6.57904 37.6857 6.01993 38.0654C5.97668 38.6197 5.93022 39.1147 6.10965 39.4479C6.03756 39.8981 6.2298 40.4908 6.63671 40.6895C6.82094 41.4761 7.04362 41.6731 7.46975 41.8782C7.77253 42.4373 8.12818 42.5334 8.86671 42.7128C9.3377 42.982 9.74781 42.9627 10.5456 43.0797C10.8949 42.9708 11.6093 43.2719 12.1284 43.1614C12.8573 43.2543 13.1361 43.2912 13.849 43.2319C14.6099 43.5331 14.4529 43.8471 14.799 44.3501C14.7605 44.6256 14.5106 45.2921 14.8694 45.5244C14.8278 46.2036 14.6067 46.3782 14.7509 46.9005C15.0649 47.4788 15.1049 47.7688 15.5038 48.4801C15.4013 48.5009 15.8419 48.9975 16.3385 49.5406C16.6557 49.6704 17.1058 50.1317 17.2468 50.5739C17.7803 50.6989 18.6085 50.7886 18.9562 51C19.5345 50.9472 19.9398 50.6556 20.5181 50.2086C21.2743 50.143 21.6812 49.4749 21.8446 49.2731C22.0689 48.8213 21.9599 48.3775 22.306 47.8345C22.1137 47.3042 22.5991 46.7579 22.4277 46.2308C22.3524 45.7518 22.4213 45.087 22.2419 44.4911C22.2066 44.2844 22.1874 43.8134 22.1217 43.3841C21.976 43.3793 21.8158 43.3745 21.6347 43.3713C21.1926 42.9083 21.0083 42.998 20.2073 42.7192V42.716Z" fill="#CE242B"/>
<path d="M8.6341 27.4597C8.35375 26.9182 8.4739 26.2374 8.63891 26.0163C8.53798 25.5677 8.48832 24.6802 8.58284 24.1227C8.43065 23.9978 8.9497 23.3185 8.87921 22.737C9.1868 22.3621 9.01538 21.5082 9.10349 21.4281C9.20442 20.5775 9.34059 20.1465 9.44312 19.7012C9.9093 19.1116 10.108 18.9915 10.0983 18.2529C10.6687 17.8492 10.5613 17.2965 10.752 17.1139C11.0836 16.3273 11.4248 16.26 12.0095 15.7923C12.2787 15.2235 12.4485 14.5571 12.7705 14.2864C12.7929 14.2463 12.8154 14.2063 12.8394 14.1678C12.6311 13.8779 12.2546 13.6087 11.8157 13.6103C11.3912 12.891 11.2294 12.6379 10.3322 12.3944C10.1015 12.3543 9.76512 12.5786 9.08267 12.6587C8.48992 13.1489 8.35375 13.3139 7.67931 13.479C7.65367 13.8843 7.18108 13.8987 7.06253 14.61C6.61877 14.7221 6.53227 15.3149 6.4826 16.0085C6.27915 16.6894 6.54989 17.1203 6.3176 17.806C6.53227 18.3939 6.46498 18.8521 6.8767 19.2093C6.94398 19.7829 6.73252 20.6239 6.7213 21.0452C7.06894 21.7165 6.38007 21.8495 6.05326 22.0321C5.4413 22.0785 5.05681 21.8543 4.3311 22.0449C3.91618 22.1619 3.6086 22.2708 3.14722 22.4678C2.90371 22.9388 2.45835 22.8075 2.03222 23.2656C1.75187 23.4915 1.56924 24.1019 1.05339 24.1692C0.487881 24.7635 0.369332 25.2025 0.14505 25.9234C-0.048793 26.4761 -0.0391809 26.7756 0.119418 27.189C0.524727 28.1005 0.316465 28.5058 0.724978 28.9896C1.16233 29.4798 1.78551 29.8275 2.14596 29.8595C2.53525 29.8195 3.08794 29.773 3.93701 29.8259C4.44965 29.8899 5.14813 30.0229 5.38843 30.0998C5.93151 29.7906 6.49382 29.64 6.75334 29.6929C7.38133 29.3837 7.96126 29.3709 8.22079 29.278C8.44987 29.1803 8.64371 29.1226 8.81513 29.0841C8.78629 28.9928 8.75586 28.9015 8.72542 28.815C8.78629 28.642 8.74144 28.1005 8.6325 27.4581L8.6341 27.4597Z" fill="#CE242B"/>
<path d="M16.0895 27.1014C15.4167 27.0725 15.0562 27.0293 14.526 27.5595C13.9893 27.3304 13.443 27.7886 13.1338 27.9969C12.4978 28.1875 12.0829 28.1459 11.5174 28.1571C10.7645 28.3926 10.3704 28.5303 9.96985 28.8556C9.56615 29.0238 9.26177 28.9885 8.81641 29.0862C8.95738 29.5236 9.09996 29.9962 9.33546 30.331C9.26337 30.8853 9.37871 31.5678 9.77601 32.0756C9.91859 32.585 10.1301 32.8205 10.1813 33.2723C10.2838 34.0108 10.7244 34.3793 10.907 34.9208C11.1393 34.8759 11.3716 34.8294 11.6391 34.7509C12.3552 34.5491 12.7381 34.5155 13.4895 34.4562C13.7842 34.2992 14.6013 34.4802 14.7422 34.2655C15.2389 34.3633 16.0255 34.0044 16.5894 33.9371C16.8088 34.0893 17.5394 34.1454 17.9126 34.0973C18.7296 33.9259 18.9699 33.8955 19.5451 33.7962C19.8014 33.6472 20.4374 33.6392 20.785 33.6472C20.7898 33.4213 20.6793 33.016 20.3717 32.5658C19.9263 31.4556 19.9007 31.7151 19.3817 31.0968C19.3544 30.291 18.9956 30.3855 18.7264 29.6582C18.5775 28.5592 18.4525 28.5384 17.9126 27.8975C17.3487 26.0825 17.3263 26.4445 16.0927 27.103L16.0895 27.1014Z" fill="#002F71"/>
<path d="M24.8709 14.7243C24.3375 14.3479 24.0299 14.1124 23.3987 13.7519C23.2481 13.7391 22.7178 13.2217 22.6105 12.6449C22.0626 12.5104 21.6765 12.1099 21.0934 12.0089C20.765 11.751 20.1402 11.2143 20.1178 10.9708C19.3648 10.8427 18.9787 10.2836 18.8153 10.2243C18.708 10.1442 18.5831 10.0545 18.4533 9.95996C18.0784 10.181 17.8654 10.2708 17.5882 10.3765C17.2294 10.495 16.4828 10.9067 16.1192 11.2288C15.8757 11.4194 15.3886 11.6949 15.1003 12.1163C14.4755 12.7298 14.2865 13.0198 13.7049 13.0807C13.5319 13.3722 13.1138 13.7215 12.8398 14.1652C12.9712 14.3479 13.0369 14.5385 13.0097 14.6763C13.4262 15.1729 13.5912 15.8025 13.8331 16.1245C14.1695 16.5667 14.4787 17.3164 14.6902 17.5647C15.0314 18.127 15.0282 18.7662 15.2605 19.2068C15.5921 19.7611 15.4816 20.184 15.9702 20.6261C15.9189 21.0859 16.2601 21.4768 16.3242 21.9911C16.4123 22.3771 16.659 23.1445 16.6767 23.3784C16.6815 24.0945 16.957 24.6184 17.09 25.1711C17.2998 25.3905 17.279 25.7638 17.3062 26.2252C17.4648 25.618 17.9326 25.6773 18.2258 25.3841C18.8762 24.6039 18.889 24.7017 19.2239 24.2002C19.6884 23.3592 19.8422 23.4072 20.1915 22.7488C20.5968 22.1449 20.4734 22.1737 21.0998 21.7203C21.6557 20.9401 21.8127 21.1164 22.2965 20.6454C22.5128 19.8299 22.5897 19.8091 23.3186 19.1042C23.8248 18.7005 23.6839 18.6172 24.2478 17.8707C24.6707 17.507 24.6515 17.5038 25.2875 16.8774C25.7809 16.4016 25.3596 15.7 26.1061 15.6823C25.8994 15.394 25.4445 15.0944 24.8725 14.7211L24.8709 14.7243Z" fill="#002F71"/>
</svg>
