<svg width="314" height="345" viewBox="0 0 314 345" fill="none" xmlns="http://www.w3.org/2000/svg">
<path d="M224.71 339.32V343.77H205.25V339.32H185.79V343.77H166.33V339.32H146.87V343.77H127.41V339.32H107.95V343.77H88.49V339.32H69.03V343.77H49.57V339.32H30.11V343.77H29.69C27.96 343.77 26.26 343.93 24.61 344.21C10.63 341.8 0 329.62 0 314.96V29.69C0 13.29 13.29 0 29.69 0H283.51C299.91 0 313.2 13.29 313.2 29.69V314.96C313.2 329.62 302.57 341.8 288.59 344.21C286.94 343.92 285.24 343.77 283.51 343.77H283.09V339.32H263.63V343.77H244.17V339.32H224.71Z" fill="black"/>
</svg>
