<svg width="314" height="111" viewBox="0 0 314 111" fill="none" xmlns="http://www.w3.org/2000/svg">
<path d="M244.17 4.20184H224.71V0.374255H205.25V4.20184H185.79V0.374255H166.33V4.20184H146.87V0.374255H127.41V4.20184H107.95V0.374255H88.49V4.20184H69.03V0.374255H49.57V4.20184H30.11V0.374255H29.69C27.96 0.374255 26.26 0.238161 24.61 0C10.63 2.04989 0 12.4099 0 24.8793V85.7464C0 99.6959 13.29 111 29.69 111H283.51C299.91 111 313.2 99.6959 313.2 85.7464V24.8793C313.2 12.4099 302.57 2.04989 288.59 0C286.94 0.246667 285.24 0.374255 283.51 0.374255H283.09V4.20184H263.63V0.374255H244.17V4.20184Z" fill="black"/>
</svg>
