<svg width="314" height="344" viewBox="0 0 314 344" fill="none" xmlns="http://www.w3.org/2000/svg">
<path d="M244.17 339.798L224.71 339.798V344H205.25V339.798H185.79V344H166.33V339.798H146.87V344H127.41V339.798H107.95V344H88.49V339.798H69L69.03 344H49.57V339.798H29.97L29.9958 344H24.5C10.7996 341.991 0 331.59 0 319.121L0.000183105 25.2536C0.000183105 11.3041 13.2902 0 29.6902 0L283.51 0C299.91 0 313.2 11.3041 313.2 25.2536L313.2 319.121C313.2 331.59 302.57 341.95 288.59 344H283V339.798H263.63V344H244.17V339.798Z" fill="black"/>
</svg>
